<?xml version="1.0" encoding="UTF-8" standalone="no"?>
<!DOCTYPE svg PUBLIC "-//W3C//DTD SVG 1.1//EN"
 "http://www.w3.org/Graphics/SVG/1.1/DTD/svg11.dtd">
<!-- Generated by graphviz version 12.2.1 (20241206.2353)
 -->
<!-- Title: G Pages: 1 -->
<svg width="3560pt" height="191pt"
 viewBox="0.00 0.00 3559.88 191.00" xmlns="http://www.w3.org/2000/svg" xmlns:xlink="http://www.w3.org/1999/xlink">
<g id="graph0" class="graph" transform="scale(1 1) rotate(0) translate(4 187)">
<title>G</title>
<polygon fill="#ffffff" stroke="none" points="-4,4 -4,-187 3555.88,-187 3555.88,4 -4,4"/>
<!-- n74 -->
<g id="node1" class="node">
<title>n74</title>
<polygon fill="#bfdbf7" stroke="#e1e5f2" points="1343.25,-146.5 1343.25,-182.5 1615,-182.5 1615,-146.5 1343.25,-146.5"/>
<text text-anchor="middle" x="1353.12" y="-159.45" font-family="Times,serif" font-size="14.00"> </text>
<polyline fill="none" stroke="#e1e5f2" points="1363,-146.5 1363,-182.5"/>
<text text-anchor="middle" x="1395.75" y="-159.45" font-family="Times,serif" font-size="14.00">281KKD</text>
<polyline fill="none" stroke="#e1e5f2" points="1428.5,-146.5 1428.5,-182.5"/>
<text text-anchor="middle" x="1438.38" y="-159.45" font-family="Times,serif" font-size="14.00"> </text>
<polyline fill="none" stroke="#e1e5f2" points="1448.25,-146.5 1448.25,-182.5"/>
<text text-anchor="middle" x="1480.25" y="-159.45" font-family="Times,serif" font-size="14.00">441NEY</text>
<polyline fill="none" stroke="#e1e5f2" points="1512.25,-146.5 1512.25,-182.5"/>
<text text-anchor="middle" x="1522.12" y="-159.45" font-family="Times,serif" font-size="14.00"> </text>
<polyline fill="none" stroke="#e1e5f2" points="1532,-146.5 1532,-182.5"/>
<text text-anchor="middle" x="1563.62" y="-159.45" font-family="Times,serif" font-size="14.00">760YPU</text>
<polyline fill="none" stroke="#e1e5f2" points="1595.25,-146.5 1595.25,-182.5"/>
<text text-anchor="middle" x="1605.12" y="-159.45" font-family="Times,serif" font-size="14.00"> </text>
</g>
<!-- n75 -->
<g id="node2" class="node">
<title>n75</title>
<polygon fill="#bfdbf7" stroke="#e1e5f2" points="436.5,-73.5 436.5,-109.5 617.75,-109.5 617.75,-73.5 436.5,-73.5"/>
<text text-anchor="middle" x="446.38" y="-86.45" font-family="Times,serif" font-size="14.00"> </text>
<polyline fill="none" stroke="#e1e5f2" points="456.25,-73.5 456.25,-109.5"/>
<text text-anchor="middle" x="486.38" y="-86.45" font-family="Times,serif" font-size="14.00">216SBS</text>
<polyline fill="none" stroke="#e1e5f2" points="516.5,-73.5 516.5,-109.5"/>
<text text-anchor="middle" x="526.38" y="-86.45" font-family="Times,serif" font-size="14.00"> </text>
<polyline fill="none" stroke="#e1e5f2" points="536.25,-73.5 536.25,-109.5"/>
<text text-anchor="middle" x="567.12" y="-86.45" font-family="Times,serif" font-size="14.00">268LVP</text>
<polyline fill="none" stroke="#e1e5f2" points="598,-73.5 598,-109.5"/>
<text text-anchor="middle" x="607.88" y="-86.45" font-family="Times,serif" font-size="14.00"> </text>
</g>
<!-- n74&#45;&gt;n75 -->
<g id="edge1" class="edge">
<title>n74:f0&#45;&gt;n75</title>
<path fill="none" stroke="#ff6347" d="M1342.25,-164.5C1084.81,-164.5 783.39,-128.42 629.26,-107.34"/>
<polygon fill="#ff6347" stroke="#ff6347" points="629.85,-103.89 619.47,-106 628.9,-110.83 629.85,-103.89"/>
</g>
<!-- n79 -->
<g id="node6" class="node">
<title>n79</title>
<polygon fill="#bfdbf7" stroke="#e1e5f2" points="1023.62,-73.5 1023.62,-109.5 1202.62,-109.5 1202.62,-73.5 1023.62,-73.5"/>
<text text-anchor="middle" x="1033.5" y="-86.45" font-family="Times,serif" font-size="14.00"> </text>
<polyline fill="none" stroke="#e1e5f2" points="1043.38,-73.5 1043.38,-109.5"/>
<text text-anchor="middle" x="1072.75" y="-86.45" font-family="Times,serif" font-size="14.00">290INL</text>
<polyline fill="none" stroke="#e1e5f2" points="1102.12,-73.5 1102.12,-109.5"/>
<text text-anchor="middle" x="1112" y="-86.45" font-family="Times,serif" font-size="14.00"> </text>
<polyline fill="none" stroke="#e1e5f2" points="1121.88,-73.5 1121.88,-109.5"/>
<text text-anchor="middle" x="1152.38" y="-86.45" font-family="Times,serif" font-size="14.00">391MSI</text>
<polyline fill="none" stroke="#e1e5f2" points="1182.88,-73.5 1182.88,-109.5"/>
<text text-anchor="middle" x="1192.75" y="-86.45" font-family="Times,serif" font-size="14.00"> </text>
</g>
<!-- n74&#45;&gt;n79 -->
<g id="edge5" class="edge">
<title>n74:f1&#45;&gt;n79</title>
<path fill="none" stroke="#ff6347" d="M1438.38,-146C1438.38,-122.97 1309.8,-107.75 1214.33,-99.63"/>
<polygon fill="#ff6347" stroke="#ff6347" points="1214.63,-96.14 1204.37,-98.79 1214.04,-103.11 1214.63,-96.14"/>
</g>
<!-- n83 -->
<g id="node10" class="node">
<title>n83</title>
<polygon fill="#bfdbf7" stroke="#e1e5f2" points="1707.75,-73.5 1707.75,-109.5 2068.5,-109.5 2068.5,-73.5 1707.75,-73.5"/>
<text text-anchor="middle" x="1717.62" y="-86.45" font-family="Times,serif" font-size="14.00"> </text>
<polyline fill="none" stroke="#e1e5f2" points="1727.5,-73.5 1727.5,-109.5"/>
<text text-anchor="middle" x="1761.38" y="-86.45" font-family="Times,serif" font-size="14.00">498WDL</text>
<polyline fill="none" stroke="#e1e5f2" points="1795.25,-73.5 1795.25,-109.5"/>
<text text-anchor="middle" x="1805.12" y="-86.45" font-family="Times,serif" font-size="14.00"> </text>
<polyline fill="none" stroke="#e1e5f2" points="1815,-73.5 1815,-109.5"/>
<text text-anchor="middle" x="1847.75" y="-86.45" font-family="Times,serif" font-size="14.00">548AKO</text>
<polyline fill="none" stroke="#e1e5f2" points="1880.5,-73.5 1880.5,-109.5"/>
<text text-anchor="middle" x="1890.38" y="-86.45" font-family="Times,serif" font-size="14.00"> </text>
<polyline fill="none" stroke="#e1e5f2" points="1900.25,-73.5 1900.25,-109.5"/>
<text text-anchor="middle" x="1932.25" y="-86.45" font-family="Times,serif" font-size="14.00">659GVT</text>
<polyline fill="none" stroke="#e1e5f2" points="1964.25,-73.5 1964.25,-109.5"/>
<text text-anchor="middle" x="1974.12" y="-86.45" font-family="Times,serif" font-size="14.00"> </text>
<polyline fill="none" stroke="#e1e5f2" points="1984,-73.5 1984,-109.5"/>
<text text-anchor="middle" x="2016.38" y="-86.45" font-family="Times,serif" font-size="14.00">693XCN</text>
<polyline fill="none" stroke="#e1e5f2" points="2048.75,-73.5 2048.75,-109.5"/>
<text text-anchor="middle" x="2058.62" y="-86.45" font-family="Times,serif" font-size="14.00"> </text>
</g>
<!-- n74&#45;&gt;n83 -->
<g id="edge9" class="edge">
<title>n74:f2&#45;&gt;n83</title>
<path fill="none" stroke="#ff6347" d="M1522.12,-146C1522.12,-126.14 1607.59,-112.98 1695.93,-104.68"/>
<polygon fill="#ff6347" stroke="#ff6347" points="1696.12,-108.18 1705.76,-103.78 1695.48,-101.21 1696.12,-108.18"/>
</g>
<!-- n89 -->
<g id="node16" class="node">
<title>n89</title>
<polygon fill="#bfdbf7" stroke="#e1e5f2" points="2862.75,-73.5 2862.75,-109.5 3137.5,-109.5 3137.5,-73.5 2862.75,-73.5"/>
<text text-anchor="middle" x="2872.62" y="-86.45" font-family="Times,serif" font-size="14.00"> </text>
<polyline fill="none" stroke="#e1e5f2" points="2882.5,-73.5 2882.5,-109.5"/>
<text text-anchor="middle" x="2915.62" y="-86.45" font-family="Times,serif" font-size="14.00">812MSU</text>
<polyline fill="none" stroke="#e1e5f2" points="2948.75,-73.5 2948.75,-109.5"/>
<text text-anchor="middle" x="2958.62" y="-86.45" font-family="Times,serif" font-size="14.00"> </text>
<polyline fill="none" stroke="#e1e5f2" points="2968.5,-73.5 2968.5,-109.5"/>
<text text-anchor="middle" x="3000.5" y="-86.45" font-family="Times,serif" font-size="14.00">877GXL</text>
<polyline fill="none" stroke="#e1e5f2" points="3032.5,-73.5 3032.5,-109.5"/>
<text text-anchor="middle" x="3042.38" y="-86.45" font-family="Times,serif" font-size="14.00"> </text>
<polyline fill="none" stroke="#e1e5f2" points="3052.25,-73.5 3052.25,-109.5"/>
<text text-anchor="middle" x="3085" y="-86.45" font-family="Times,serif" font-size="14.00">962GGU</text>
<polyline fill="none" stroke="#e1e5f2" points="3117.75,-73.5 3117.75,-109.5"/>
<text text-anchor="middle" x="3127.62" y="-86.45" font-family="Times,serif" font-size="14.00"> </text>
</g>
<!-- n74&#45;&gt;n89 -->
<g id="edge15" class="edge">
<title>n74:f3&#45;&gt;n89</title>
<path fill="none" stroke="#ff6347" d="M1616,-164.5C2066.49,-164.5 2598.34,-125.99 2851.62,-105.3"/>
<polygon fill="#ff6347" stroke="#ff6347" points="2851.54,-108.82 2861.22,-104.51 2850.97,-101.84 2851.54,-108.82"/>
</g>
<!-- n76 -->
<g id="node3" class="node">
<title>n76</title>
<polygon fill="#bfdbf7" stroke="#e1e5f2" points="0,-0.5 0,-36.5 356.25,-36.5 356.25,-0.5 0,-0.5"/>
<text text-anchor="middle" x="9.88" y="-13.45" font-family="Times,serif" font-size="14.00"> </text>
<polyline fill="none" stroke="#e1e5f2" points="19.75,-0.5 19.75,-36.5"/>
<text text-anchor="middle" x="52.12" y="-13.45" font-family="Times,serif" font-size="14.00">100KAR</text>
<polyline fill="none" stroke="#e1e5f2" points="84.5,-0.5 84.5,-36.5"/>
<text text-anchor="middle" x="94.38" y="-13.45" font-family="Times,serif" font-size="14.00"> </text>
<polyline fill="none" stroke="#e1e5f2" points="104.25,-0.5 104.25,-36.5"/>
<text text-anchor="middle" x="136.62" y="-13.45" font-family="Times,serif" font-size="14.00">109XGC</text>
<polyline fill="none" stroke="#e1e5f2" points="169,-0.5 169,-36.5"/>
<text text-anchor="middle" x="178.88" y="-13.45" font-family="Times,serif" font-size="14.00"> </text>
<polyline fill="none" stroke="#e1e5f2" points="188.75,-0.5 188.75,-36.5"/>
<text text-anchor="middle" x="221.5" y="-13.45" font-family="Times,serif" font-size="14.00">111UKK</text>
<polyline fill="none" stroke="#e1e5f2" points="254.25,-0.5 254.25,-36.5"/>
<text text-anchor="middle" x="264.12" y="-13.45" font-family="Times,serif" font-size="14.00"> </text>
<polyline fill="none" stroke="#e1e5f2" points="274,-0.5 274,-36.5"/>
<text text-anchor="middle" x="305.25" y="-13.45" font-family="Times,serif" font-size="14.00">116PWJ</text>
<polyline fill="none" stroke="#e1e5f2" points="336.5,-0.5 336.5,-36.5"/>
<text text-anchor="middle" x="346.38" y="-13.45" font-family="Times,serif" font-size="14.00"> </text>
</g>
<!-- n75&#45;&gt;n76 -->
<g id="edge2" class="edge">
<title>n75:f0&#45;&gt;n76</title>
<path fill="none" stroke="#ff6347" d="M435.5,-91.5C360.13,-91.5 276.78,-62.51 225.92,-41.32"/>
<polygon fill="#ff6347" stroke="#ff6347" points="227.54,-38.21 216.97,-37.52 224.81,-44.65 227.54,-38.21"/>
</g>
<!-- n77 -->
<g id="node4" class="node">
<title>n77</title>
<polygon fill="#bfdbf7" stroke="#e1e5f2" points="374.62,-0.5 374.62,-36.5 559.62,-36.5 559.62,-0.5 374.62,-0.5"/>
<text text-anchor="middle" x="384.5" y="-13.45" font-family="Times,serif" font-size="14.00"> </text>
<polyline fill="none" stroke="#e1e5f2" points="394.38,-0.5 394.38,-36.5"/>
<text text-anchor="middle" x="427.12" y="-13.45" font-family="Times,serif" font-size="14.00">244AOH</text>
<polyline fill="none" stroke="#e1e5f2" points="459.88,-0.5 459.88,-36.5"/>
<text text-anchor="middle" x="469.75" y="-13.45" font-family="Times,serif" font-size="14.00"> </text>
<polyline fill="none" stroke="#e1e5f2" points="479.62,-0.5 479.62,-36.5"/>
<text text-anchor="middle" x="509.75" y="-13.45" font-family="Times,serif" font-size="14.00">266IXH</text>
<polyline fill="none" stroke="#e1e5f2" points="539.88,-0.5 539.88,-36.5"/>
<text text-anchor="middle" x="549.75" y="-13.45" font-family="Times,serif" font-size="14.00"> </text>
</g>
<!-- n75&#45;&gt;n77 -->
<g id="edge3" class="edge">
<title>n75:f1&#45;&gt;n77</title>
<path fill="none" stroke="#ff6347" d="M526.38,-73C526.38,-61.57 520.22,-51.95 511.88,-44.16"/>
<polygon fill="#ff6347" stroke="#ff6347" points="514.12,-41.47 504.14,-37.93 509.74,-46.92 514.12,-41.47"/>
</g>
<!-- n78 -->
<g id="node5" class="node">
<title>n78</title>
<polygon fill="#bfdbf7" stroke="#e1e5f2" points="578,-0.5 578,-36.5 756.25,-36.5 756.25,-0.5 578,-0.5"/>
<text text-anchor="middle" x="587.88" y="-13.45" font-family="Times,serif" font-size="14.00"> </text>
<polyline fill="none" stroke="#e1e5f2" points="597.75,-0.5 597.75,-36.5"/>
<text text-anchor="middle" x="628.25" y="-13.45" font-family="Times,serif" font-size="14.00">272DJN</text>
<polyline fill="none" stroke="#e1e5f2" points="658.75,-0.5 658.75,-36.5"/>
<text text-anchor="middle" x="668.62" y="-13.45" font-family="Times,serif" font-size="14.00"> </text>
<polyline fill="none" stroke="#e1e5f2" points="678.5,-0.5 678.5,-36.5"/>
<text text-anchor="middle" x="707.5" y="-13.45" font-family="Times,serif" font-size="14.00">279IYP</text>
<polyline fill="none" stroke="#e1e5f2" points="736.5,-0.5 736.5,-36.5"/>
<text text-anchor="middle" x="746.38" y="-13.45" font-family="Times,serif" font-size="14.00"> </text>
</g>
<!-- n75&#45;&gt;n78 -->
<g id="edge4" class="edge">
<title>n75:f2&#45;&gt;n78</title>
<path fill="none" stroke="#ff6347" d="M607.88,-73C607.88,-61.57 614.03,-51.95 622.37,-44.16"/>
<polygon fill="#ff6347" stroke="#ff6347" points="624.51,-46.92 630.11,-37.93 620.13,-41.47 624.51,-46.92"/>
</g>
<!-- n80 -->
<g id="node7" class="node">
<title>n80</title>
<polygon fill="#bfdbf7" stroke="#e1e5f2" points="773.88,-0.5 773.88,-36.5 960.38,-36.5 960.38,-0.5 773.88,-0.5"/>
<text text-anchor="middle" x="783.75" y="-13.45" font-family="Times,serif" font-size="14.00"> </text>
<polyline fill="none" stroke="#e1e5f2" points="793.62,-0.5 793.62,-36.5"/>
<text text-anchor="middle" x="824.5" y="-13.45" font-family="Times,serif" font-size="14.00">284SEX</text>
<polyline fill="none" stroke="#e1e5f2" points="855.38,-0.5 855.38,-36.5"/>
<text text-anchor="middle" x="865.25" y="-13.45" font-family="Times,serif" font-size="14.00"> </text>
<polyline fill="none" stroke="#e1e5f2" points="875.12,-0.5 875.12,-36.5"/>
<text text-anchor="middle" x="907.88" y="-13.45" font-family="Times,serif" font-size="14.00">287QQN</text>
<polyline fill="none" stroke="#e1e5f2" points="940.62,-0.5 940.62,-36.5"/>
<text text-anchor="middle" x="950.5" y="-13.45" font-family="Times,serif" font-size="14.00"> </text>
</g>
<!-- n79&#45;&gt;n80 -->
<g id="edge6" class="edge">
<title>n79:f0&#45;&gt;n80</title>
<path fill="none" stroke="#ff6347" d="M1022.62,-91.5C975.92,-91.5 928.01,-64.42 897.94,-43.47"/>
<polygon fill="#ff6347" stroke="#ff6347" points="900.23,-40.8 890.06,-37.81 896.14,-46.49 900.23,-40.8"/>
</g>
<!-- n81 -->
<g id="node8" class="node">
<title>n81</title>
<polygon fill="#bfdbf7" stroke="#e1e5f2" points="978.25,-0.5 978.25,-36.5 1164,-36.5 1164,-0.5 978.25,-0.5"/>
<text text-anchor="middle" x="988.12" y="-13.45" font-family="Times,serif" font-size="14.00"> </text>
<polyline fill="none" stroke="#e1e5f2" points="998,-0.5 998,-36.5"/>
<text text-anchor="middle" x="1029.25" y="-13.45" font-family="Times,serif" font-size="14.00">303LNT</text>
<polyline fill="none" stroke="#e1e5f2" points="1060.5,-0.5 1060.5,-36.5"/>
<text text-anchor="middle" x="1070.38" y="-13.45" font-family="Times,serif" font-size="14.00"> </text>
<polyline fill="none" stroke="#e1e5f2" points="1080.25,-0.5 1080.25,-36.5"/>
<text text-anchor="middle" x="1112.25" y="-13.45" font-family="Times,serif" font-size="14.00">384AAE</text>
<polyline fill="none" stroke="#e1e5f2" points="1144.25,-0.5 1144.25,-36.5"/>
<text text-anchor="middle" x="1154.12" y="-13.45" font-family="Times,serif" font-size="14.00"> </text>
</g>
<!-- n79&#45;&gt;n81 -->
<g id="edge7" class="edge">
<title>n79:f1&#45;&gt;n81</title>
<path fill="none" stroke="#ff6347" d="M1112,-73C1112,-62.81 1107.26,-53.35 1101.01,-45.32"/>
<polygon fill="#ff6347" stroke="#ff6347" points="1103.75,-43.14 1094.48,-38.01 1098.53,-47.8 1103.75,-43.14"/>
</g>
<!-- n82 -->
<g id="node9" class="node">
<title>n82</title>
<polygon fill="#bfdbf7" stroke="#e1e5f2" points="1181.75,-0.5 1181.75,-36.5 1284.5,-36.5 1284.5,-0.5 1181.75,-0.5"/>
<text text-anchor="middle" x="1191.62" y="-13.45" font-family="Times,serif" font-size="14.00"> </text>
<polyline fill="none" stroke="#e1e5f2" points="1201.5,-0.5 1201.5,-36.5"/>
<text text-anchor="middle" x="1233.12" y="-13.45" font-family="Times,serif" font-size="14.00">413GRT</text>
<polyline fill="none" stroke="#e1e5f2" points="1264.75,-0.5 1264.75,-36.5"/>
<text text-anchor="middle" x="1274.62" y="-13.45" font-family="Times,serif" font-size="14.00"> </text>
</g>
<!-- n79&#45;&gt;n82 -->
<g id="edge8" class="edge">
<title>n79:f2&#45;&gt;n82</title>
<path fill="none" stroke="#ff6347" d="M1192.75,-73C1192.75,-62.85 1197.43,-53.41 1203.61,-45.38"/>
<polygon fill="#ff6347" stroke="#ff6347" points="1206.06,-47.88 1210.05,-38.07 1200.81,-43.26 1206.06,-47.88"/>
</g>
<!-- n84 -->
<g id="node11" class="node">
<title>n84</title>
<polygon fill="#bfdbf7" stroke="#e1e5f2" points="1302.38,-0.5 1302.38,-36.5 1571.88,-36.5 1571.88,-0.5 1302.38,-0.5"/>
<text text-anchor="middle" x="1312.25" y="-13.45" font-family="Times,serif" font-size="14.00"> </text>
<polyline fill="none" stroke="#e1e5f2" points="1322.12,-0.5 1322.12,-36.5"/>
<text text-anchor="middle" x="1354.12" y="-13.45" font-family="Times,serif" font-size="14.00">444YOZ</text>
<polyline fill="none" stroke="#e1e5f2" points="1386.12,-0.5 1386.12,-36.5"/>
<text text-anchor="middle" x="1396" y="-13.45" font-family="Times,serif" font-size="14.00"> </text>
<polyline fill="none" stroke="#e1e5f2" points="1405.88,-0.5 1405.88,-36.5"/>
<text text-anchor="middle" x="1437.5" y="-13.45" font-family="Times,serif" font-size="14.00">455CXZ</text>
<polyline fill="none" stroke="#e1e5f2" points="1469.12,-0.5 1469.12,-36.5"/>
<text text-anchor="middle" x="1479" y="-13.45" font-family="Times,serif" font-size="14.00"> </text>
<polyline fill="none" stroke="#e1e5f2" points="1488.88,-0.5 1488.88,-36.5"/>
<text text-anchor="middle" x="1520.5" y="-13.45" font-family="Times,serif" font-size="14.00">485RYE</text>
<polyline fill="none" stroke="#e1e5f2" points="1552.12,-0.5 1552.12,-36.5"/>
<text text-anchor="middle" x="1562" y="-13.45" font-family="Times,serif" font-size="14.00"> </text>
</g>
<!-- n83&#45;&gt;n84 -->
<g id="edge10" class="edge">
<title>n83:f0&#45;&gt;n84</title>
<path fill="none" stroke="#ff6347" d="M1706.75,-91.5C1627.88,-91.5 1540.29,-62.39 1486.97,-41.19"/>
<polygon fill="#ff6347" stroke="#ff6347" points="1488.43,-38 1477.85,-37.5 1485.8,-44.49 1488.43,-38"/>
</g>
<!-- n85 -->
<g id="node12" class="node">
<title>n85</title>
<polygon fill="#bfdbf7" stroke="#e1e5f2" points="1590.38,-0.5 1590.38,-36.5 1859.88,-36.5 1859.88,-0.5 1590.38,-0.5"/>
<text text-anchor="middle" x="1600.25" y="-13.45" font-family="Times,serif" font-size="14.00"> </text>
<polyline fill="none" stroke="#e1e5f2" points="1610.12,-0.5 1610.12,-36.5"/>
<text text-anchor="middle" x="1644" y="-13.45" font-family="Times,serif" font-size="14.00">506XRM</text>
<polyline fill="none" stroke="#e1e5f2" points="1677.88,-0.5 1677.88,-36.5"/>
<text text-anchor="middle" x="1687.75" y="-13.45" font-family="Times,serif" font-size="14.00"> </text>
<polyline fill="none" stroke="#e1e5f2" points="1697.62,-0.5 1697.62,-36.5"/>
<text text-anchor="middle" x="1728.88" y="-13.45" font-family="Times,serif" font-size="14.00">545BZB</text>
<polyline fill="none" stroke="#e1e5f2" points="1760.12,-0.5 1760.12,-36.5"/>
<text text-anchor="middle" x="1770" y="-13.45" font-family="Times,serif" font-size="14.00"> </text>
<polyline fill="none" stroke="#e1e5f2" points="1779.88,-0.5 1779.88,-36.5"/>
<text text-anchor="middle" x="1810" y="-13.45" font-family="Times,serif" font-size="14.00">546XIH</text>
<polyline fill="none" stroke="#e1e5f2" points="1840.12,-0.5 1840.12,-36.5"/>
<text text-anchor="middle" x="1850" y="-13.45" font-family="Times,serif" font-size="14.00"> </text>
</g>
<!-- n83&#45;&gt;n85 -->
<g id="edge11" class="edge">
<title>n83:f1&#45;&gt;n85</title>
<path fill="none" stroke="#ff6347" d="M1805.12,-73C1805.12,-60.46 1798.25,-50.68 1788.54,-43.11"/>
<polygon fill="#ff6347" stroke="#ff6347" points="1790.47,-40.19 1780.19,-37.6 1786.61,-46.03 1790.47,-40.19"/>
</g>
<!-- n86 -->
<g id="node13" class="node">
<title>n86</title>
<polygon fill="#bfdbf7" stroke="#e1e5f2" points="1878.25,-0.5 1878.25,-36.5 2064,-36.5 2064,-0.5 1878.25,-0.5"/>
<text text-anchor="middle" x="1888.12" y="-13.45" font-family="Times,serif" font-size="14.00"> </text>
<polyline fill="none" stroke="#e1e5f2" points="1898,-0.5 1898,-36.5"/>
<text text-anchor="middle" x="1930.75" y="-13.45" font-family="Times,serif" font-size="14.00">617VUY</text>
<polyline fill="none" stroke="#e1e5f2" points="1963.5,-0.5 1963.5,-36.5"/>
<text text-anchor="middle" x="1973.38" y="-13.45" font-family="Times,serif" font-size="14.00"> </text>
<polyline fill="none" stroke="#e1e5f2" points="1983.25,-0.5 1983.25,-36.5"/>
<text text-anchor="middle" x="2013.75" y="-13.45" font-family="Times,serif" font-size="14.00">635NXJ</text>
<polyline fill="none" stroke="#e1e5f2" points="2044.25,-0.5 2044.25,-36.5"/>
<text text-anchor="middle" x="2054.12" y="-13.45" font-family="Times,serif" font-size="14.00"> </text>
</g>
<!-- n83&#45;&gt;n86 -->
<g id="edge12" class="edge">
<title>n83:f2&#45;&gt;n86</title>
<path fill="none" stroke="#ff6347" d="M1890.38,-73C1890.38,-60.51 1897.17,-50.77 1906.82,-43.22"/>
<polygon fill="#ff6347" stroke="#ff6347" points="1908.7,-46.17 1915.11,-37.74 1904.84,-40.34 1908.7,-46.17"/>
</g>
<!-- n87 -->
<g id="node14" class="node">
<title>n87</title>
<polygon fill="#bfdbf7" stroke="#e1e5f2" points="2082.12,-0.5 2082.12,-36.5 2350.12,-36.5 2350.12,-0.5 2082.12,-0.5"/>
<text text-anchor="middle" x="2092" y="-13.45" font-family="Times,serif" font-size="14.00"> </text>
<polyline fill="none" stroke="#e1e5f2" points="2101.88,-0.5 2101.88,-36.5"/>
<text text-anchor="middle" x="2133.5" y="-13.45" font-family="Times,serif" font-size="14.00">660DQS</text>
<polyline fill="none" stroke="#e1e5f2" points="2165.12,-0.5 2165.12,-36.5"/>
<text text-anchor="middle" x="2175" y="-13.45" font-family="Times,serif" font-size="14.00"> </text>
<polyline fill="none" stroke="#e1e5f2" points="2184.88,-0.5 2184.88,-36.5"/>
<text text-anchor="middle" x="2216.88" y="-13.45" font-family="Times,serif" font-size="14.00">666TUA</text>
<polyline fill="none" stroke="#e1e5f2" points="2248.88,-0.5 2248.88,-36.5"/>
<text text-anchor="middle" x="2258.75" y="-13.45" font-family="Times,serif" font-size="14.00"> </text>
<polyline fill="none" stroke="#e1e5f2" points="2268.62,-0.5 2268.62,-36.5"/>
<text text-anchor="middle" x="2299.5" y="-13.45" font-family="Times,serif" font-size="14.00">678FTV</text>
<polyline fill="none" stroke="#e1e5f2" points="2330.38,-0.5 2330.38,-36.5"/>
<text text-anchor="middle" x="2340.25" y="-13.45" font-family="Times,serif" font-size="14.00"> </text>
</g>
<!-- n83&#45;&gt;n87 -->
<g id="edge13" class="edge">
<title>n83:f3&#45;&gt;n87</title>
<path fill="none" stroke="#ff6347" d="M1974.12,-73C1974.12,-60.57 2023.42,-48.46 2077.51,-38.92"/>
<polygon fill="#ff6347" stroke="#ff6347" points="2077.99,-42.39 2087.26,-37.24 2076.81,-35.49 2077.99,-42.39"/>
</g>
<!-- n88 -->
<g id="node15" class="node">
<title>n88</title>
<polygon fill="#bfdbf7" stroke="#e1e5f2" points="2368.38,-0.5 2368.38,-36.5 2637.88,-36.5 2637.88,-0.5 2368.38,-0.5"/>
<text text-anchor="middle" x="2378.25" y="-13.45" font-family="Times,serif" font-size="14.00"> </text>
<polyline fill="none" stroke="#e1e5f2" points="2388.12,-0.5 2388.12,-36.5"/>
<text text-anchor="middle" x="2422.38" y="-13.45" font-family="Times,serif" font-size="14.00">709HMY</text>
<polyline fill="none" stroke="#e1e5f2" points="2456.62,-0.5 2456.62,-36.5"/>
<text text-anchor="middle" x="2466.5" y="-13.45" font-family="Times,serif" font-size="14.00"> </text>
<polyline fill="none" stroke="#e1e5f2" points="2476.38,-0.5 2476.38,-36.5"/>
<text text-anchor="middle" x="2509.12" y="-13.45" font-family="Times,serif" font-size="14.00">746GUH</text>
<polyline fill="none" stroke="#e1e5f2" points="2541.88,-0.5 2541.88,-36.5"/>
<text text-anchor="middle" x="2551.75" y="-13.45" font-family="Times,serif" font-size="14.00"> </text>
<polyline fill="none" stroke="#e1e5f2" points="2561.62,-0.5 2561.62,-36.5"/>
<text text-anchor="middle" x="2589.88" y="-13.45" font-family="Times,serif" font-size="14.00">748ILF</text>
<polyline fill="none" stroke="#e1e5f2" points="2618.12,-0.5 2618.12,-36.5"/>
<text text-anchor="middle" x="2628" y="-13.45" font-family="Times,serif" font-size="14.00"> </text>
</g>
<!-- n83&#45;&gt;n88 -->
<g id="edge14" class="edge">
<title>n83:f4&#45;&gt;n88</title>
<path fill="none" stroke="#ff6347" d="M2069.5,-91.5C2196.71,-91.5 2342.11,-60.97 2428.07,-39.67"/>
<polygon fill="#ff6347" stroke="#ff6347" points="2428.71,-43.12 2437.56,-37.3 2427.01,-36.33 2428.71,-43.12"/>
</g>
<!-- n90 -->
<g id="node17" class="node">
<title>n90</title>
<polygon fill="#bfdbf7" stroke="#e1e5f2" points="2656.25,-0.5 2656.25,-36.5 2848,-36.5 2848,-0.5 2656.25,-0.5"/>
<text text-anchor="middle" x="2666.12" y="-13.45" font-family="Times,serif" font-size="14.00"> </text>
<polyline fill="none" stroke="#e1e5f2" points="2676,-0.5 2676,-36.5"/>
<text text-anchor="middle" x="2705.75" y="-13.45" font-family="Times,serif" font-size="14.00">785BUI</text>
<polyline fill="none" stroke="#e1e5f2" points="2735.5,-0.5 2735.5,-36.5"/>
<text text-anchor="middle" x="2745.38" y="-13.45" font-family="Times,serif" font-size="14.00"> </text>
<polyline fill="none" stroke="#e1e5f2" points="2755.25,-0.5 2755.25,-36.5"/>
<text text-anchor="middle" x="2791.75" y="-13.45" font-family="Times,serif" font-size="14.00">807WWV</text>
<polyline fill="none" stroke="#e1e5f2" points="2828.25,-0.5 2828.25,-36.5"/>
<text text-anchor="middle" x="2838.12" y="-13.45" font-family="Times,serif" font-size="14.00"> </text>
</g>
<!-- n89&#45;&gt;n90 -->
<g id="edge16" class="edge">
<title>n89:f0&#45;&gt;n90</title>
<path fill="none" stroke="#ff6347" d="M2872.62,-73C2872.62,-60.03 2866.72,-50.18 2857.53,-42.71"/>
<polygon fill="#ff6347" stroke="#ff6347" points="2859.76,-39.99 2849.5,-37.33 2855.86,-45.8 2859.76,-39.99"/>
</g>
<!-- n91 -->
<g id="node18" class="node">
<title>n91</title>
<polygon fill="#bfdbf7" stroke="#e1e5f2" points="2865.88,-0.5 2865.88,-36.5 3052.38,-36.5 3052.38,-0.5 2865.88,-0.5"/>
<text text-anchor="middle" x="2875.75" y="-13.45" font-family="Times,serif" font-size="14.00"> </text>
<polyline fill="none" stroke="#e1e5f2" points="2885.62,-0.5 2885.62,-36.5"/>
<text text-anchor="middle" x="2917.25" y="-13.45" font-family="Times,serif" font-size="14.00">843HFN</text>
<polyline fill="none" stroke="#e1e5f2" points="2948.88,-0.5 2948.88,-36.5"/>
<text text-anchor="middle" x="2958.75" y="-13.45" font-family="Times,serif" font-size="14.00"> </text>
<polyline fill="none" stroke="#e1e5f2" points="2968.62,-0.5 2968.62,-36.5"/>
<text text-anchor="middle" x="3000.62" y="-13.45" font-family="Times,serif" font-size="14.00">860LHH</text>
<polyline fill="none" stroke="#e1e5f2" points="3032.62,-0.5 3032.62,-36.5"/>
<text text-anchor="middle" x="3042.5" y="-13.45" font-family="Times,serif" font-size="14.00"> </text>
</g>
<!-- n89&#45;&gt;n91 -->
<g id="edge17" class="edge">
<title>n89:f1&#45;&gt;n91</title>
<path fill="none" stroke="#ff6347" d="M2958.62,-73C2958.62,-64.98 2958.68,-56.29 2958.76,-48.28"/>
<polygon fill="#ff6347" stroke="#ff6347" points="2962.26,-48.4 2958.86,-38.36 2955.26,-48.32 2962.26,-48.4"/>
</g>
<!-- n92 -->
<g id="node19" class="node">
<title>n92</title>
<polygon fill="#bfdbf7" stroke="#e1e5f2" points="3070.12,-0.5 3070.12,-36.5 3258.12,-36.5 3258.12,-0.5 3070.12,-0.5"/>
<text text-anchor="middle" x="3080" y="-13.45" font-family="Times,serif" font-size="14.00"> </text>
<polyline fill="none" stroke="#e1e5f2" points="3089.88,-0.5 3089.88,-36.5"/>
<text text-anchor="middle" x="3121.5" y="-13.45" font-family="Times,serif" font-size="14.00">920SKO</text>
<polyline fill="none" stroke="#e1e5f2" points="3153.12,-0.5 3153.12,-36.5"/>
<text text-anchor="middle" x="3163" y="-13.45" font-family="Times,serif" font-size="14.00"> </text>
<polyline fill="none" stroke="#e1e5f2" points="3172.88,-0.5 3172.88,-36.5"/>
<text text-anchor="middle" x="3205.62" y="-13.45" font-family="Times,serif" font-size="14.00">947GGV</text>
<polyline fill="none" stroke="#e1e5f2" points="3238.38,-0.5 3238.38,-36.5"/>
<text text-anchor="middle" x="3248.25" y="-13.45" font-family="Times,serif" font-size="14.00"> </text>
</g>
<!-- n89&#45;&gt;n92 -->
<g id="edge18" class="edge">
<title>n89:f2&#45;&gt;n92</title>
<path fill="none" stroke="#ff6347" d="M3042.38,-73C3042.38,-58.84 3049.36,-48.4 3059.99,-40.7"/>
<polygon fill="#ff6347" stroke="#ff6347" points="3061.64,-43.79 3068.4,-35.63 3058.03,-37.79 3061.64,-43.79"/>
</g>
<!-- n93 -->
<g id="node20" class="node">
<title>n93</title>
<polygon fill="#bfdbf7" stroke="#e1e5f2" points="3276.38,-0.5 3276.38,-36.5 3551.88,-36.5 3551.88,-0.5 3276.38,-0.5"/>
<text text-anchor="middle" x="3286.25" y="-13.45" font-family="Times,serif" font-size="14.00"> </text>
<polyline fill="none" stroke="#e1e5f2" points="3296.12,-0.5 3296.12,-36.5"/>
<text text-anchor="middle" x="3328.5" y="-13.45" font-family="Times,serif" font-size="14.00">970GUB</text>
<polyline fill="none" stroke="#e1e5f2" points="3360.88,-0.5 3360.88,-36.5"/>
<text text-anchor="middle" x="3370.75" y="-13.45" font-family="Times,serif" font-size="14.00"> </text>
<polyline fill="none" stroke="#e1e5f2" points="3380.62,-0.5 3380.62,-36.5"/>
<text text-anchor="middle" x="3414.12" y="-13.45" font-family="Times,serif" font-size="14.00">979DTM</text>
<polyline fill="none" stroke="#e1e5f2" points="3447.62,-0.5 3447.62,-36.5"/>
<text text-anchor="middle" x="3457.5" y="-13.45" font-family="Times,serif" font-size="14.00"> </text>
<polyline fill="none" stroke="#e1e5f2" points="3467.38,-0.5 3467.38,-36.5"/>
<text text-anchor="middle" x="3499.75" y="-13.45" font-family="Times,serif" font-size="14.00">982ONR</text>
<polyline fill="none" stroke="#e1e5f2" points="3532.12,-0.5 3532.12,-36.5"/>
<text text-anchor="middle" x="3542" y="-13.45" font-family="Times,serif" font-size="14.00"> </text>
</g>
<!-- n89&#45;&gt;n93 -->
<g id="edge19" class="edge">
<title>n89:f3&#45;&gt;n93</title>
<path fill="none" stroke="#ff6347" d="M3138.5,-91.5C3219.18,-91.5 3308.95,-62.27 3363.47,-41.05"/>
<polygon fill="#ff6347" stroke="#ff6347" points="3364.47,-44.42 3372.48,-37.49 3361.9,-37.91 3364.47,-44.42"/>
</g>
</g>
</svg>
