<?xml version="1.0" encoding="UTF-8" standalone="no"?>
<!DOCTYPE svg PUBLIC "-//W3C//DTD SVG 1.1//EN"
 "http://www.w3.org/Graphics/SVG/1.1/DTD/svg11.dtd">
<!-- Generated by graphviz version 12.2.1 (20241206.2353)
 -->
<!-- Title: G Pages: 1 -->
<svg width="399pt" height="399pt"
 viewBox="0.00 0.00 399.18 398.89" xmlns="http://www.w3.org/2000/svg" xmlns:xlink="http://www.w3.org/1999/xlink">
<g id="graph0" class="graph" transform="scale(1 1) rotate(0) translate(4 394.89)">
<title>G</title>
<polygon fill="#1a1a1a" stroke="none" points="-4,4 -4,-394.89 395.18,-394.89 395.18,4 -4,4"/>
<!-- Oviedo -->
<g id="node1" class="node">
<title>Oviedo</title>
<ellipse fill="#313638" stroke="none" cx="18.88" cy="-186.95" rx="18" ry="18"/>
<text text-anchor="middle" x="18.88" y="-184.8" font-family="Times,serif" font-size="7.00" fill="white">Oviedo</text>
</g>
<!-- Bilbao -->
<g id="node2" class="node">
<title>Bilbao</title>
<ellipse fill="#313638" stroke="none" cx="93.14" cy="-221.74" rx="18" ry="18"/>
<text text-anchor="middle" x="93.14" y="-219.59" font-family="Times,serif" font-size="7.00" fill="white">Bilbao</text>
</g>
<!-- Oviedo&#45;&gt;Bilbao -->
<g id="edge1" class="edge">
<title>Oviedo&#45;&gt;Bilbao</title>
<path fill="none" stroke="#ff5400" d="M31.89,-199.22C43.98,-206.59 62,-215.03 75.4,-219.6"/>
<text text-anchor="middle" x="50.27" y="-210.66" font-family="Times,serif" font-size="5.00" fill="white">304</text>
</g>
<!-- Bilbao&#45;&gt;Oviedo -->
<g id="edge2" class="edge">
<title>Bilbao&#45;&gt;Oviedo</title>
<path fill="none" stroke="#ff5400" d="M80.12,-209.47C68.03,-202.1 50.01,-193.65 36.61,-189.08"/>
<text text-anchor="middle" x="54.99" y="-200.53" font-family="Times,serif" font-size="5.00" fill="white">304</text>
</g>
<!-- Zaragoza -->
<g id="node3" class="node">
<title>Zaragoza</title>
<ellipse fill="#313638" stroke="none" cx="137.65" cy="-169.01" rx="18" ry="18"/>
<text text-anchor="middle" x="137.65" y="-166.86" font-family="Times,serif" font-size="7.00" fill="white">Zaragoza</text>
</g>
<!-- Bilbao&#45;&gt;Zaragoza -->
<g id="edge3" class="edge">
<title>Bilbao&#45;&gt;Zaragoza</title>
<path fill="none" stroke="#ff5400" d="M108.41,-212.77C116.3,-205.23 125.38,-194.47 131.46,-185.44"/>
<text text-anchor="middle" x="116.56" y="-200.35" font-family="Times,serif" font-size="5.00" fill="white">324</text>
</g>
<!-- Madrid -->
<g id="node4" class="node">
<title>Madrid</title>
<ellipse fill="#313638" stroke="none" cx="165.83" cy="-249.92" rx="18" ry="18"/>
<text text-anchor="middle" x="165.83" y="-247.77" font-family="Times,serif" font-size="7.00" fill="white">Madrid</text>
</g>
<!-- Bilbao&#45;&gt;Madrid -->
<g id="edge4" class="edge">
<title>Bilbao&#45;&gt;Madrid</title>
<path fill="none" stroke="#ff5400" d="M106.86,-233.15C118.53,-239.21 135.33,-245.72 148.03,-249.11"/>
<text text-anchor="middle" x="124.07" y="-242.38" font-family="Times,serif" font-size="5.00" fill="white">395</text>
</g>
<!-- Valladolid -->
<g id="node5" class="node">
<title>Valladolid</title>
<ellipse fill="#313638" stroke="none" cx="92.13" cy="-292.77" rx="18" ry="18"/>
<text text-anchor="middle" x="92.13" y="-290.62" font-family="Times,serif" font-size="7.00" fill="white">Valladolid</text>
</g>
<!-- Bilbao&#45;&gt;Valladolid -->
<g id="edge5" class="edge">
<title>Bilbao&#45;&gt;Valladolid</title>
<path fill="none" stroke="#ff5400" d="M87.06,-238.49C85.68,-249.79 85.48,-264.66 86.54,-275.97"/>
<text text-anchor="middle" x="83.43" y="-258.48" font-family="Times,serif" font-size="5.00" fill="white">280</text>
</g>
<!-- Zaragoza&#45;&gt;Bilbao -->
<g id="edge15" class="edge">
<title>Zaragoza&#45;&gt;Bilbao</title>
<path fill="none" stroke="#ff5400" d="M122.39,-177.98C114.49,-185.52 105.41,-196.28 99.34,-205.31"/>
<text text-anchor="middle" x="107.49" y="-192.9" font-family="Times,serif" font-size="5.00" fill="white">324</text>
</g>
<!-- Zaragoza&#45;&gt;Madrid -->
<g id="edge16" class="edge">
<title>Zaragoza&#45;&gt;Madrid</title>
<path fill="none" stroke="#ff5400" d="M138.02,-186.8C141.39,-201.53 148.57,-222.15 155.08,-235.77"/>
<text text-anchor="middle" x="143.17" y="-212.54" font-family="Times,serif" font-size="5.00" fill="white">325</text>
</g>
<!-- Barcelona -->
<g id="node9" class="node">
<title>Barcelona</title>
<ellipse fill="#313638" stroke="none" cx="174.99" cy="-95.16" rx="18" ry="18"/>
<text text-anchor="middle" x="174.99" y="-93.01" font-family="Times,serif" font-size="7.00" fill="white">Barcelona</text>
</g>
<!-- Zaragoza&#45;&gt;Barcelona -->
<g id="edge17" class="edge">
<title>Zaragoza&#45;&gt;Barcelona</title>
<path fill="none" stroke="#ff5400" d="M150.16,-156.57C158.02,-144.56 167.23,-126.36 172.29,-112.85"/>
<text text-anchor="middle" x="157.85" y="-135.96" font-family="Times,serif" font-size="5.00" fill="white">296</text>
</g>
<!-- Madrid&#45;&gt;Bilbao -->
<g id="edge28" class="edge">
<title>Madrid&#45;&gt;Bilbao</title>
<path fill="none" stroke="#ff5400" d="M152.11,-238.51C140.43,-232.45 123.63,-225.94 110.93,-222.55"/>
<text text-anchor="middle" x="128.14" y="-231.78" font-family="Times,serif" font-size="5.00" fill="white">395</text>
</g>
<!-- Madrid&#45;&gt;Zaragoza -->
<g id="edge31" class="edge">
<title>Madrid&#45;&gt;Zaragoza</title>
<path fill="none" stroke="#ff5400" d="M165.46,-232.12C162.09,-217.39 154.91,-196.78 148.4,-183.15"/>
<text text-anchor="middle" x="153.55" y="-208.89" font-family="Times,serif" font-size="5.00" fill="white">325</text>
</g>
<!-- Madrid&#45;&gt;Valladolid -->
<g id="edge29" class="edge">
<title>Madrid&#45;&gt;Valladolid</title>
<path fill="none" stroke="#ff5400" d="M148.5,-253.62C134.75,-259.7 115.97,-270.62 103.9,-279.56"/>
<text text-anchor="middle" x="122.82" y="-267.84" font-family="Times,serif" font-size="5.00" fill="white">193</text>
</g>
<!-- Badajoz -->
<g id="node8" class="node">
<title>Badajoz</title>
<ellipse fill="#313638" stroke="none" cx="169.52" cy="-328.79" rx="18" ry="18"/>
<text text-anchor="middle" x="169.52" y="-326.64" font-family="Times,serif" font-size="7.00" fill="white">Badajoz</text>
</g>
<!-- Madrid&#45;&gt;Badajoz -->
<g id="edge30" class="edge">
<title>Madrid&#45;&gt;Badajoz</title>
<path fill="none" stroke="#ff5400" d="M160.98,-266.91C160.13,-280.27 160.99,-298.79 163.07,-312.08"/>
<text text-anchor="middle" x="158.65" y="-290.74" font-family="Times,serif" font-size="5.00" fill="white">403</text>
</g>
<!-- Albacete -->
<g id="node12" class="node">
<title>Albacete</title>
<ellipse fill="#313638" stroke="none" cx="222.19" cy="-192.68" rx="18" ry="18"/>
<text text-anchor="middle" x="222.19" y="-190.53" font-family="Times,serif" font-size="7.00" fill="white">Albacete</text>
</g>
<!-- Madrid&#45;&gt;Albacete -->
<g id="edge32" class="edge">
<title>Madrid&#45;&gt;Albacete</title>
<path fill="none" stroke="#ff5400" d="M181.8,-241.73C192.42,-233.06 205.77,-219.51 214.27,-208.75"/>
<text text-anchor="middle" x="194.66" y="-226.49" font-family="Times,serif" font-size="5.00" fill="white">251</text>
</g>
<!-- Jaen -->
<g id="node14" class="node">
<title>Jaen</title>
<ellipse fill="#313638" stroke="none" cx="244.37" cy="-290.4" rx="18" ry="18"/>
<text text-anchor="middle" x="244.37" y="-288.25" font-family="Times,serif" font-size="7.00" fill="white">Jaen</text>
</g>
<!-- Madrid&#45;&gt;Jaen -->
<g id="edge33" class="edge">
<title>Madrid&#45;&gt;Jaen</title>
<path fill="none" stroke="#ff5400" d="M178.47,-262.57C191.59,-271.27 212.09,-281.84 226.78,-287.46"/>
<text text-anchor="middle" x="199.25" y="-276.27" font-family="Times,serif" font-size="5.00" fill="white">335</text>
</g>
<!-- Valladolid&#45;&gt;Bilbao -->
<g id="edge10" class="edge">
<title>Valladolid&#45;&gt;Bilbao</title>
<path fill="none" stroke="#ff5400" d="M98.21,-276.02C99.59,-264.71 99.8,-249.85 98.73,-238.53"/>
<text text-anchor="middle" x="95.09" y="-258.53" font-family="Times,serif" font-size="5.00" fill="white">280</text>
</g>
<!-- Valladolid&#45;&gt;Madrid -->
<g id="edge13" class="edge">
<title>Valladolid&#45;&gt;Madrid</title>
<path fill="none" stroke="#ff5400" d="M109.46,-289.06C123.21,-282.98 141.99,-272.07 154.06,-263.12"/>
<text text-anchor="middle" x="128.39" y="-277.34" font-family="Times,serif" font-size="5.00" fill="white">193</text>
</g>
<!-- Coruna -->
<g id="node6" class="node">
<title>Coruna</title>
<ellipse fill="#313638" stroke="none" cx="61.5" cy="-367.61" rx="18" ry="18"/>
<text text-anchor="middle" x="61.5" y="-365.46" font-family="Times,serif" font-size="7.00" fill="white">Coruna</text>
</g>
<!-- Valladolid&#45;&gt;Coruna -->
<g id="edge11" class="edge">
<title>Valladolid&#45;&gt;Coruna</title>
<path fill="none" stroke="#ff5400" d="M80.61,-306.15C73.97,-318.33 66.59,-336.34 62.74,-349.74"/>
<text text-anchor="middle" x="68.3" y="-329.2" font-family="Times,serif" font-size="5.00" fill="white">455</text>
</g>
<!-- Vigo -->
<g id="node7" class="node">
<title>Vigo</title>
<ellipse fill="#313638" stroke="none" cx="18.47" cy="-322.87" rx="18" ry="18"/>
<text text-anchor="middle" x="18.47" y="-320.72" font-family="Times,serif" font-size="7.00" fill="white">Vigo</text>
</g>
<!-- Valladolid&#45;&gt;Vigo -->
<g id="edge12" class="edge">
<title>Valladolid&#45;&gt;Vigo</title>
<path fill="none" stroke="#ff5400" d="M74.38,-293.93C61.32,-297.67 43.87,-304.8 31.94,-311.28"/>
<text text-anchor="middle" x="49.79" y="-303.86" font-family="Times,serif" font-size="5.00" fill="white">356</text>
</g>
<!-- Coruna&#45;&gt;Valladolid -->
<g id="edge7" class="edge">
<title>Coruna&#45;&gt;Valladolid</title>
<path fill="none" stroke="#ff5400" d="M73.02,-354.22C79.67,-342.04 87.04,-324.04 90.89,-310.64"/>
<text text-anchor="middle" x="78.58" y="-333.68" font-family="Times,serif" font-size="5.00" fill="white">455</text>
</g>
<!-- Coruna&#45;&gt;Vigo -->
<g id="edge6" class="edge">
<title>Coruna&#45;&gt;Vigo</title>
<path fill="none" stroke="#ff5400" d="M54.34,-351.42C48.83,-344.36 41.25,-336.48 34.41,-330.69"/>
<text text-anchor="middle" x="41" y="-342.31" font-family="Times,serif" font-size="5.00" fill="white">171</text>
</g>
<!-- Vigo&#45;&gt;Valladolid -->
<g id="edge9" class="edge">
<title>Vigo&#45;&gt;Valladolid</title>
<path fill="none" stroke="#ff5400" d="M36.23,-321.7C49.29,-317.97 66.73,-310.84 78.67,-304.36"/>
<text text-anchor="middle" x="54.07" y="-314.28" font-family="Times,serif" font-size="5.00" fill="white">356</text>
</g>
<!-- Vigo&#45;&gt;Coruna -->
<g id="edge8" class="edge">
<title>Vigo&#45;&gt;Coruna</title>
<path fill="none" stroke="#ff5400" d="M25.64,-339.06C31.15,-346.12 38.73,-354 45.57,-359.79"/>
<text text-anchor="middle" x="32.23" y="-350.68" font-family="Times,serif" font-size="5.00" fill="white">171</text>
</g>
<!-- Badajoz&#45;&gt;Madrid -->
<g id="edge14" class="edge">
<title>Badajoz&#45;&gt;Madrid</title>
<path fill="none" stroke="#ff5400" d="M174.37,-311.8C175.22,-298.44 174.36,-279.92 172.28,-266.63"/>
<text text-anchor="middle" x="169.95" y="-290.46" font-family="Times,serif" font-size="5.00" fill="white">403</text>
</g>
<!-- Barcelona&#45;&gt;Zaragoza -->
<g id="edge19" class="edge">
<title>Barcelona&#45;&gt;Zaragoza</title>
<path fill="none" stroke="#ff5400" d="M162.48,-107.6C154.62,-119.61 145.41,-137.81 140.35,-151.32"/>
<text text-anchor="middle" x="148.04" y="-130.71" font-family="Times,serif" font-size="5.00" fill="white">296</text>
</g>
<!-- Gerona -->
<g id="node10" class="node">
<title>Gerona</title>
<ellipse fill="#313638" stroke="none" cx="163.87" cy="-18" rx="18" ry="18"/>
<text text-anchor="middle" x="163.87" y="-15.85" font-family="Times,serif" font-size="7.00" fill="white">Gerona</text>
</g>
<!-- Barcelona&#45;&gt;Gerona -->
<g id="edge20" class="edge">
<title>Barcelona&#45;&gt;Gerona</title>
<path fill="none" stroke="#ff5400" d="M178.2,-77.61C177.75,-64.46 175.18,-46.63 171.9,-33.9"/>
<text text-anchor="middle" x="171.67" y="-57" font-family="Times,serif" font-size="5.00" fill="white">100</text>
</g>
<!-- Valencia -->
<g id="node11" class="node">
<title>Valencia</title>
<ellipse fill="#313638" stroke="none" cx="250.5" cy="-122.13" rx="18" ry="18"/>
<text text-anchor="middle" x="250.5" y="-119.98" font-family="Times,serif" font-size="7.00" fill="white">Valencia</text>
</g>
<!-- Barcelona&#45;&gt;Valencia -->
<g id="edge21" class="edge">
<title>Barcelona&#45;&gt;Valencia</title>
<path fill="none" stroke="#ff5400" d="M189.1,-106.19C201.42,-112.16 219.3,-118.55 232.61,-121.72"/>
<text text-anchor="middle" x="207.48" y="-115.2" font-family="Times,serif" font-size="5.00" fill="white">349</text>
</g>
<!-- Gerona&#45;&gt;Barcelona -->
<g id="edge18" class="edge">
<title>Gerona&#45;&gt;Barcelona</title>
<path fill="none" stroke="#ff5400" d="M160.66,-35.55C161.11,-48.7 163.68,-66.53 166.96,-79.26"/>
<text text-anchor="middle" x="160.44" y="-58.66" font-family="Times,serif" font-size="5.00" fill="white">100</text>
</g>
<!-- Valencia&#45;&gt;Barcelona -->
<g id="edge25" class="edge">
<title>Valencia&#45;&gt;Barcelona</title>
<path fill="none" stroke="#ff5400" d="M236.38,-111.1C224.06,-105.12 206.18,-98.74 192.87,-95.56"/>
<text text-anchor="middle" x="211.25" y="-104.58" font-family="Times,serif" font-size="5.00" fill="white">349</text>
</g>
<!-- Valencia&#45;&gt;Albacete -->
<g id="edge26" class="edge">
<title>Valencia&#45;&gt;Albacete</title>
<path fill="none" stroke="#ff5400" d="M238.9,-135.65C232.94,-146.83 226.56,-162.74 223.15,-174.94"/>
<text text-anchor="middle" x="227.65" y="-156.55" font-family="Times,serif" font-size="5.00" fill="white">191</text>
</g>
<!-- Murcia -->
<g id="node13" class="node">
<title>Murcia</title>
<ellipse fill="#313638" stroke="none" cx="297.77" cy="-179.36" rx="18" ry="18"/>
<text text-anchor="middle" x="297.77" y="-177.21" font-family="Times,serif" font-size="7.00" fill="white">Murcia</text>
</g>
<!-- Valencia&#45;&gt;Murcia -->
<g id="edge27" class="edge">
<title>Valencia&#45;&gt;Murcia</title>
<path fill="none" stroke="#ff5400" d="M256.78,-138.78C263.5,-148.99 273.9,-161.58 282.65,-170.09"/>
<text text-anchor="middle" x="266.34" y="-155.69" font-family="Times,serif" font-size="5.00" fill="white">241</text>
</g>
<!-- Albacete&#45;&gt;Madrid -->
<g id="edge22" class="edge">
<title>Albacete&#45;&gt;Madrid</title>
<path fill="none" stroke="#ff5400" d="M206.22,-200.86C195.6,-209.53 182.25,-223.09 173.75,-233.84"/>
<text text-anchor="middle" x="186.61" y="-218.6" font-family="Times,serif" font-size="5.00" fill="white">251</text>
</g>
<!-- Albacete&#45;&gt;Valencia -->
<g id="edge23" class="edge">
<title>Albacete&#45;&gt;Valencia</title>
<path fill="none" stroke="#ff5400" d="M233.78,-179.15C239.75,-167.97 246.13,-152.06 249.53,-139.87"/>
<text text-anchor="middle" x="238.28" y="-160.76" font-family="Times,serif" font-size="5.00" fill="white">191</text>
</g>
<!-- Albacete&#45;&gt;Murcia -->
<g id="edge24" class="edge">
<title>Albacete&#45;&gt;Murcia</title>
<path fill="none" stroke="#ff5400" d="M239.95,-195.36C252.72,-194.5 269.76,-191.5 282.03,-187.94"/>
<text text-anchor="middle" x="257.62" y="-192.9" font-family="Times,serif" font-size="5.00" fill="white">150</text>
</g>
<!-- Murcia&#45;&gt;Valencia -->
<g id="edge35" class="edge">
<title>Murcia&#45;&gt;Valencia</title>
<path fill="none" stroke="#ff5400" d="M291.48,-162.71C284.76,-152.5 274.36,-139.91 265.62,-131.4"/>
<text text-anchor="middle" x="275.17" y="-148.3" font-family="Times,serif" font-size="5.00" fill="white">241</text>
</g>
<!-- Murcia&#45;&gt;Albacete -->
<g id="edge34" class="edge">
<title>Murcia&#45;&gt;Albacete</title>
<path fill="none" stroke="#ff5400" d="M280,-176.68C267.24,-177.54 250.2,-180.54 237.92,-184.1"/>
<text text-anchor="middle" x="255.59" y="-181.64" font-family="Times,serif" font-size="5.00" fill="white">150</text>
</g>
<!-- Granada -->
<g id="node15" class="node">
<title>Granada</title>
<ellipse fill="#313638" stroke="none" cx="315.26" cy="-253.54" rx="18" ry="18"/>
<text text-anchor="middle" x="315.26" y="-251.39" font-family="Times,serif" font-size="7.00" fill="white">Granada</text>
</g>
<!-- Murcia&#45;&gt;Granada -->
<g id="edge36" class="edge">
<title>Murcia&#45;&gt;Granada</title>
<path fill="none" stroke="#ff5400" d="M296.08,-197.14C297.64,-209.75 301.59,-226.47 305.82,-238.44"/>
<text text-anchor="middle" x="297.58" y="-219.04" font-family="Times,serif" font-size="5.00" fill="white">278</text>
</g>
<!-- Jaen&#45;&gt;Madrid -->
<g id="edge37" class="edge">
<title>Jaen&#45;&gt;Madrid</title>
<path fill="none" stroke="#ff5400" d="M231.73,-277.74C218.61,-269.04 198.11,-258.47 183.42,-252.85"/>
<text text-anchor="middle" x="204.2" y="-266.55" font-family="Times,serif" font-size="5.00" fill="white">335</text>
</g>
<!-- Jaen&#45;&gt;Granada -->
<g id="edge38" class="edge">
<title>Jaen&#45;&gt;Granada</title>
<path fill="none" stroke="#ff5400" d="M262,-287.58C274.72,-282.65 291.51,-273.92 302.85,-266.34"/>
<text text-anchor="middle" x="280.17" y="-278.21" font-family="Times,serif" font-size="5.00" fill="white">99</text>
</g>
<!-- Sevilla -->
<g id="node16" class="node">
<title>Sevilla</title>
<ellipse fill="#313638" stroke="none" cx="313.34" cy="-325.58" rx="18" ry="18"/>
<text text-anchor="middle" x="313.34" y="-323.43" font-family="Times,serif" font-size="7.00" fill="white">Sevilla</text>
</g>
<!-- Jaen&#45;&gt;Sevilla -->
<g id="edge39" class="edge">
<title>Jaen&#45;&gt;Sevilla</title>
<path fill="none" stroke="#ff5400" d="M256.76,-303.09C267.67,-310.27 283.61,-318.4 295.83,-323.02"/>
<text text-anchor="middle" x="272.92" y="-314.3" font-family="Times,serif" font-size="5.00" fill="white">242</text>
</g>
<!-- Granada&#45;&gt;Murcia -->
<g id="edge40" class="edge">
<title>Granada&#45;&gt;Murcia</title>
<path fill="none" stroke="#ff5400" d="M316.94,-235.77C315.38,-223.16 311.44,-206.43 307.2,-194.47"/>
<text text-anchor="middle" x="308.7" y="-216.37" font-family="Times,serif" font-size="5.00" fill="white">278</text>
</g>
<!-- Granada&#45;&gt;Jaen -->
<g id="edge41" class="edge">
<title>Granada&#45;&gt;Jaen</title>
<path fill="none" stroke="#ff5400" d="M297.63,-256.36C284.91,-261.29 268.12,-270.02 256.78,-277.59"/>
<text text-anchor="middle" x="274.95" y="-268.23" font-family="Times,serif" font-size="5.00" fill="white">99</text>
</g>
<!-- Granada&#45;&gt;Sevilla -->
<g id="edge42" class="edge">
<title>Granada&#45;&gt;Sevilla</title>
<path fill="none" stroke="#ff5400" d="M309.02,-270.1C307.45,-281.62 307.04,-296.94 307.98,-308.56"/>
<text text-anchor="middle" x="305.12" y="-290.58" font-family="Times,serif" font-size="5.00" fill="white">256</text>
</g>
<!-- Sevilla&#45;&gt;Jaen -->
<g id="edge43" class="edge">
<title>Sevilla&#45;&gt;Jaen</title>
<path fill="none" stroke="#ff5400" d="M300.96,-312.89C290.04,-305.72 274.1,-297.58 261.89,-292.96"/>
<text text-anchor="middle" x="278.05" y="-304.18" font-family="Times,serif" font-size="5.00" fill="white">242</text>
</g>
<!-- Sevilla&#45;&gt;Granada -->
<g id="edge44" class="edge">
<title>Sevilla&#45;&gt;Granada</title>
<path fill="none" stroke="#ff5400" d="M319.59,-309.03C321.15,-297.51 321.57,-282.19 320.63,-270.56"/>
<text text-anchor="middle" x="316.73" y="-291.05" font-family="Times,serif" font-size="5.00" fill="white">256</text>
</g>
<!-- Cadiz -->
<g id="node17" class="node">
<title>Cadiz</title>
<ellipse fill="#313638" stroke="none" cx="373.18" cy="-372.89" rx="18" ry="18"/>
<text text-anchor="middle" x="373.18" y="-370.74" font-family="Times,serif" font-size="7.00" fill="white">Cadiz</text>
</g>
<!-- Sevilla&#45;&gt;Cadiz -->
<g id="edge45" class="edge">
<title>Sevilla&#45;&gt;Cadiz</title>
<path fill="none" stroke="#ff5400" d="M323.08,-340.57C332.14,-349.49 345.63,-360.15 356.39,-366.9"/>
<text text-anchor="middle" x="336.36" y="-354.99" font-family="Times,serif" font-size="5.00" fill="white">125</text>
</g>
<!-- Cadiz&#45;&gt;Sevilla -->
<g id="edge46" class="edge">
<title>Cadiz&#45;&gt;Sevilla</title>
<path fill="none" stroke="#ff5400" d="M363.45,-357.9C354.38,-348.98 340.89,-338.32 330.13,-331.57"/>
<text text-anchor="middle" x="343.41" y="-345.99" font-family="Times,serif" font-size="5.00" fill="white">125</text>
</g>
</g>
</svg>
