<?xml version="1.0" encoding="UTF-8" standalone="no"?>
<!DOCTYPE svg PUBLIC "-//W3C//DTD SVG 1.1//EN"
 "http://www.w3.org/Graphics/SVG/1.1/DTD/svg11.dtd">
<!-- Generated by graphviz version 12.2.1 (20241206.2353)
 -->
<!-- Title: G Pages: 1 -->
<svg width="254pt" height="227pt"
 viewBox="0.00 0.00 254.30 226.95" xmlns="http://www.w3.org/2000/svg" xmlns:xlink="http://www.w3.org/1999/xlink">
<g id="graph0" class="graph" transform="scale(1 1) rotate(0) translate(4 222.95)">
<title>G</title>
<polygon fill="#1a1a1a" stroke="none" points="-4,4 -4,-222.95 250.3,-222.95 250.3,4 -4,4"/>
<!-- Zaragoza -->
<g id="node1" class="node">
<title>Zaragoza</title>
<ellipse fill="#313638" stroke="none" cx="152.88" cy="-76.48" rx="18" ry="18"/>
<text text-anchor="middle" x="152.88" y="-74.33" font-family="Times,serif" font-size="7.00" fill="white">Zaragoza</text>
</g>
<!-- Madrid -->
<g id="node2" class="node">
<title>Madrid</title>
<ellipse fill="#313638" stroke="none" cx="224.75" cy="-62.29" rx="18" ry="18"/>
<text text-anchor="middle" x="224.75" y="-60.14" font-family="Times,serif" font-size="7.00" fill="white">Madrid</text>
</g>
<!-- Zaragoza&#45;&gt;Madrid -->
<g id="edge1" class="edge">
<title>Zaragoza&#45;&gt;Madrid</title>
<path fill="none" stroke="#ff5400" d="M170.28,-73.04C181.49,-70.83 196.03,-67.96 207.26,-65.74"/>
<text text-anchor="middle" x="185.4" y="-70.64" font-family="Times,serif" font-size="5.00" fill="white">325</text>
</g>
<!-- Barcelona -->
<g id="node3" class="node">
<title>Barcelona</title>
<ellipse fill="#313638" stroke="none" cx="85.61" cy="-45.65" rx="18" ry="18"/>
<text text-anchor="middle" x="85.61" y="-43.5" font-family="Times,serif" font-size="7.00" fill="white">Barcelona</text>
</g>
<!-- Zaragoza&#45;&gt;Barcelona -->
<g id="edge3" class="edge">
<title>Zaragoza&#45;&gt;Barcelona</title>
<path fill="none" stroke="#ff5400" d="M136.59,-69.02C126.02,-64.17 112.29,-57.88 101.74,-53.04"/>
<text text-anchor="middle" x="115.79" y="-62.28" font-family="Times,serif" font-size="5.00" fill="white">296</text>
</g>
<!-- Gerona -->
<g id="node4" class="node">
<title>Gerona</title>
<ellipse fill="#313638" stroke="none" cx="18.5" cy="-18" rx="18" ry="18"/>
<text text-anchor="middle" x="18.5" y="-15.85" font-family="Times,serif" font-size="7.00" fill="white">Gerona</text>
</g>
<!-- Barcelona&#45;&gt;Gerona -->
<g id="edge2" class="edge">
<title>Barcelona&#45;&gt;Gerona</title>
<path fill="none" stroke="#ff5400" d="M69.02,-38.81C58.62,-34.53 45.26,-29.03 34.9,-24.76"/>
<text text-anchor="middle" x="48.58" y="-33.03" font-family="Times,serif" font-size="5.00" fill="white">100</text>
</g>
<!-- Bilbao -->
<g id="node5" class="node">
<title>Bilbao</title>
<ellipse fill="#313638" stroke="none" cx="201.69" cy="-131.44" rx="18" ry="18"/>
<text text-anchor="middle" x="201.69" y="-129.29" font-family="Times,serif" font-size="7.00" fill="white">Bilbao</text>
</g>
<!-- Bilbao&#45;&gt;Zaragoza -->
<g id="edge5" class="edge">
<title>Bilbao&#45;&gt;Zaragoza</title>
<path fill="none" stroke="#ff5400" d="M189.87,-118.13C182.2,-109.49 172.24,-98.28 164.59,-89.66"/>
<text text-anchor="middle" x="173.85" y="-105.15" font-family="Times,serif" font-size="5.00" fill="white">324</text>
</g>
<!-- Bilbao&#45;&gt;Madrid -->
<g id="edge4" class="edge">
<title>Bilbao&#45;&gt;Madrid</title>
<path fill="none" stroke="#ff5400" d="M207.27,-114.7C210.84,-103.98 215.46,-90.13 219.06,-79.35"/>
<text text-anchor="middle" x="209.79" y="-98.27" font-family="Times,serif" font-size="5.00" fill="white">395</text>
</g>
<!-- Oviedo -->
<g id="node6" class="node">
<title>Oviedo</title>
<ellipse fill="#313638" stroke="none" cx="227.43" cy="-200.95" rx="18" ry="18"/>
<text text-anchor="middle" x="227.43" y="-198.8" font-family="Times,serif" font-size="7.00" fill="white">Oviedo</text>
</g>
<!-- Oviedo&#45;&gt;Bilbao -->
<g id="edge6" class="edge">
<title>Oviedo&#45;&gt;Bilbao</title>
<path fill="none" stroke="#ff5400" d="M221.2,-184.12C217.15,-173.19 211.9,-159.01 207.86,-148.11"/>
<text text-anchor="middle" x="211.15" y="-167.36" font-family="Times,serif" font-size="5.00" fill="white">304</text>
</g>
</g>
</svg>
