<?xml version="1.0" encoding="UTF-8" standalone="no"?>
<!DOCTYPE svg PUBLIC "-//W3C//DTD SVG 1.1//EN"
 "http://www.w3.org/Graphics/SVG/1.1/DTD/svg11.dtd">
<!-- Generated by graphviz version 12.2.1 (20241206.2353)
 -->
<!-- Pages: 1 -->
<svg width="8775pt" height="78pt"
 viewBox="0.00 0.00 8774.50 78.00" xmlns="http://www.w3.org/2000/svg" xmlns:xlink="http://www.w3.org/1999/xlink">
<g id="graph0" class="graph" transform="scale(1 1) rotate(0) translate(4 74)">
<polygon fill="white" stroke="none" points="-4,4 -4,-74 8770.5,-74 8770.5,4 -4,4"/>
<!-- node1 -->
<g id="node1" class="node">
<title>node1</title>
<polygon fill="#bfdbf7" stroke="black" points="0,-3.5 0,-44.5 204.25,-44.5 204.25,-3.5 0,-3.5"/>
<text text-anchor="middle" x="102.12" y="-27.2" font-family="Times,serif" font-size="14.00">DPI: 1</text>
<text text-anchor="middle" x="102.12" y="-10.7" font-family="Times,serif" font-size="14.00">Nombre: Calificacion Calificacion</text>
</g>
<!-- node3002853700101 -->
<g id="node2" class="node">
<title>node3002853700101</title>
<polygon fill="#bfdbf7" stroke="black" points="240.25,-28.5 240.25,-69.5 389,-69.5 389,-28.5 240.25,-28.5"/>
<text text-anchor="middle" x="314.62" y="-52.2" font-family="Times,serif" font-size="14.00">DPI: 3002853700101</text>
<text text-anchor="middle" x="314.62" y="-35.7" font-family="Times,serif" font-size="14.00">Nombre: Luis Filomeno</text>
</g>
<!-- node1&#45;&gt;node3002853700101 -->
<g id="edge1" class="edge">
<title>node1&#45;&gt;node3002853700101</title>
<path fill="none" stroke="#f94144" d="M216.09,-37.42C220.25,-37.91 224.39,-38.4 228.48,-38.89"/>
<polygon fill="#f94144" stroke="#f94144" points="216.52,-33.94 206.18,-36.24 215.7,-40.89 216.52,-33.94"/>
<polygon fill="#f94144" stroke="#f94144" points="228.05,-42.36 238.4,-40.07 228.88,-35.41 228.05,-42.36"/>
</g>
<!-- node3001853700101 -->
<g id="node3" class="node">
<title>node3001853700101</title>
<polygon fill="#bfdbf7" stroke="black" points="425,-28.5 425,-69.5 582,-69.5 582,-28.5 425,-28.5"/>
<text text-anchor="middle" x="503.5" y="-52.2" font-family="Times,serif" font-size="14.00">DPI: 3001853700101</text>
<text text-anchor="middle" x="503.5" y="-35.7" font-family="Times,serif" font-size="14.00">Nombre: Hernaldo Juarez</text>
</g>
<!-- node3002853700101&#45;&gt;node3001853700101 -->
<g id="edge2" class="edge">
<title>node3002853700101&#45;&gt;node3001853700101</title>
<path fill="none" stroke="#f94144" d="M400.94,-49C405,-49 409.08,-49 413.15,-49"/>
<polygon fill="#f94144" stroke="#f94144" points="401,-45.5 391,-49 401,-52.5 401,-45.5"/>
<polygon fill="#f94144" stroke="#f94144" points="413.06,-52.5 423.06,-49 413.06,-45.5 413.06,-52.5"/>
</g>
<!-- node3000853790101 -->
<g id="node4" class="node">
<title>node3000853790101</title>
<polygon fill="#bfdbf7" stroke="black" points="618,-28.5 618,-69.5 758.5,-69.5 758.5,-28.5 618,-28.5"/>
<text text-anchor="middle" x="688.25" y="-52.2" font-family="Times,serif" font-size="14.00">DPI: 3000853790101</text>
<text text-anchor="middle" x="688.25" y="-35.7" font-family="Times,serif" font-size="14.00">Nombre: Carlo Arriola</text>
</g>
<!-- node3001853700101&#45;&gt;node3000853790101 -->
<g id="edge3" class="edge">
<title>node3001853700101&#45;&gt;node3000853790101</title>
<path fill="none" stroke="#f94144" d="M593.63,-49C597.92,-49 602.21,-49 606.47,-49"/>
<polygon fill="#f94144" stroke="#f94144" points="593.78,-45.5 583.78,-49 593.78,-52.5 593.78,-45.5"/>
<polygon fill="#f94144" stroke="#f94144" points="606.14,-52.5 616.14,-49 606.14,-45.5 606.14,-52.5"/>
</g>
<!-- node3000853780101 -->
<g id="node5" class="node">
<title>node3000853780101</title>
<polygon fill="#bfdbf7" stroke="black" points="794.5,-28.5 794.5,-69.5 939.5,-69.5 939.5,-28.5 794.5,-28.5"/>
<text text-anchor="middle" x="867" y="-52.2" font-family="Times,serif" font-size="14.00">DPI: 3000853780101</text>
<text text-anchor="middle" x="867" y="-35.7" font-family="Times,serif" font-size="14.00">Nombre: Jian Gutierrez</text>
</g>
<!-- node3000853790101&#45;&gt;node3000853780101 -->
<g id="edge4" class="edge">
<title>node3000853790101&#45;&gt;node3000853780101</title>
<path fill="none" stroke="#f94144" d="M770.1,-49C774.36,-49 778.64,-49 782.91,-49"/>
<polygon fill="#f94144" stroke="#f94144" points="770.37,-45.5 760.37,-49 770.37,-52.5 770.37,-45.5"/>
<polygon fill="#f94144" stroke="#f94144" points="782.62,-52.5 792.62,-49 782.62,-45.5 782.62,-52.5"/>
</g>
<!-- node3000853770101 -->
<g id="node6" class="node">
<title>node3000853770101</title>
<polygon fill="#bfdbf7" stroke="black" points="975.5,-28.5 975.5,-69.5 1132.5,-69.5 1132.5,-28.5 975.5,-28.5"/>
<text text-anchor="middle" x="1054" y="-52.2" font-family="Times,serif" font-size="14.00">DPI: 3000853770101</text>
<text text-anchor="middle" x="1054" y="-35.7" font-family="Times,serif" font-size="14.00">Nombre: Christian Pelaez</text>
</g>
<!-- node3000853780101&#45;&gt;node3000853770101 -->
<g id="edge5" class="edge">
<title>node3000853780101&#45;&gt;node3000853770101</title>
<path fill="none" stroke="#f94144" d="M951.03,-49C955.29,-49 959.57,-49 963.85,-49"/>
<polygon fill="#f94144" stroke="#f94144" points="951.3,-45.5 941.3,-49 951.3,-52.5 951.3,-45.5"/>
<polygon fill="#f94144" stroke="#f94144" points="963.6,-52.5 973.6,-49 963.6,-45.5 963.6,-52.5"/>
</g>
<!-- node3000853760101 -->
<g id="node7" class="node">
<title>node3000853760101</title>
<polygon fill="#bfdbf7" stroke="black" points="1168.5,-28.5 1168.5,-69.5 1311.25,-69.5 1311.25,-28.5 1168.5,-28.5"/>
<text text-anchor="middle" x="1239.88" y="-52.2" font-family="Times,serif" font-size="14.00">DPI: 3000853760101</text>
<text text-anchor="middle" x="1239.88" y="-35.7" font-family="Times,serif" font-size="14.00">Nombre: Rafael Ruano</text>
</g>
<!-- node3000853770101&#45;&gt;node3000853760101 -->
<g id="edge6" class="edge">
<title>node3000853770101&#45;&gt;node3000853760101</title>
<path fill="none" stroke="#f94144" d="M1144.24,-49C1148.36,-49 1152.49,-49 1156.6,-49"/>
<polygon fill="#f94144" stroke="#f94144" points="1144.49,-45.5 1134.49,-49 1144.49,-52.5 1144.49,-45.5"/>
<polygon fill="#f94144" stroke="#f94144" points="1156.56,-52.5 1166.56,-49 1156.56,-45.5 1156.56,-52.5"/>
</g>
<!-- node3000853750101 -->
<g id="node8" class="node">
<title>node3000853750101</title>
<polygon fill="#bfdbf7" stroke="black" points="1347.25,-28.5 1347.25,-69.5 1493.75,-69.5 1493.75,-28.5 1347.25,-28.5"/>
<text text-anchor="middle" x="1420.5" y="-52.2" font-family="Times,serif" font-size="14.00">DPI: 3000853750101</text>
<text text-anchor="middle" x="1420.5" y="-35.7" font-family="Times,serif" font-size="14.00">Nombre: Ludwig Donis</text>
</g>
<!-- node3000853760101&#45;&gt;node3000853750101 -->
<g id="edge7" class="edge">
<title>node3000853760101&#45;&gt;node3000853750101</title>
<path fill="none" stroke="#f94144" d="M1322.97,-49C1327.23,-49 1331.51,-49 1335.77,-49"/>
<polygon fill="#f94144" stroke="#f94144" points="1323.24,-45.5 1313.24,-49 1323.24,-52.5 1323.24,-45.5"/>
<polygon fill="#f94144" stroke="#f94144" points="1335.46,-52.5 1345.46,-49 1335.46,-45.5 1335.46,-52.5"/>
</g>
<!-- node3000853740101 -->
<g id="node9" class="node">
<title>node3000853740101</title>
<polygon fill="#bfdbf7" stroke="black" points="1529.75,-28.5 1529.75,-69.5 1674.75,-69.5 1674.75,-28.5 1529.75,-28.5"/>
<text text-anchor="middle" x="1602.25" y="-52.2" font-family="Times,serif" font-size="14.00">DPI: 3000853740101</text>
<text text-anchor="middle" x="1602.25" y="-35.7" font-family="Times,serif" font-size="14.00">Nombre: Alex Sanabria</text>
</g>
<!-- node3000853750101&#45;&gt;node3000853740101 -->
<g id="edge8" class="edge">
<title>node3000853750101&#45;&gt;node3000853740101</title>
<path fill="none" stroke="#f94144" d="M1505.33,-49C1509.58,-49 1513.85,-49 1518.09,-49"/>
<polygon fill="#f94144" stroke="#f94144" points="1505.61,-45.5 1495.61,-49 1505.61,-52.5 1505.61,-45.5"/>
<polygon fill="#f94144" stroke="#f94144" points="1517.75,-52.5 1527.75,-49 1517.75,-45.5 1517.75,-52.5"/>
</g>
<!-- node3000853730101 -->
<g id="node10" class="node">
<title>node3000853730101</title>
<polygon fill="#bfdbf7" stroke="black" points="1710.75,-28.5 1710.75,-69.5 1876,-69.5 1876,-28.5 1710.75,-28.5"/>
<text text-anchor="middle" x="1793.38" y="-52.2" font-family="Times,serif" font-size="14.00">DPI: 3000853730101</text>
<text text-anchor="middle" x="1793.38" y="-35.7" font-family="Times,serif" font-size="14.00">Nombre: Geovanni Chavez</text>
</g>
<!-- node3000853740101&#45;&gt;node3000853730101 -->
<g id="edge9" class="edge">
<title>node3000853740101&#45;&gt;node3000853730101</title>
<path fill="none" stroke="#f94144" d="M1686.29,-49C1690.56,-49 1694.87,-49 1699.17,-49"/>
<polygon fill="#f94144" stroke="#f94144" points="1686.53,-45.5 1676.53,-49 1686.53,-52.5 1686.53,-45.5"/>
<polygon fill="#f94144" stroke="#f94144" points="1699.01,-52.5 1709.01,-49 1699.01,-45.5 1699.01,-52.5"/>
</g>
<!-- node3000853720101 -->
<g id="node11" class="node">
<title>node3000853720101</title>
<polygon fill="#bfdbf7" stroke="black" points="1912,-28.5 1912,-69.5 2081.75,-69.5 2081.75,-28.5 1912,-28.5"/>
<text text-anchor="middle" x="1996.88" y="-52.2" font-family="Times,serif" font-size="14.00">DPI: 3000853720101</text>
<text text-anchor="middle" x="1996.88" y="-35.7" font-family="Times,serif" font-size="14.00">Nombre: Mynor Montserrat</text>
</g>
<!-- node3000853730101&#45;&gt;node3000853720101 -->
<g id="edge10" class="edge">
<title>node3000853730101&#45;&gt;node3000853720101</title>
<path fill="none" stroke="#f94144" d="M1887.62,-49C1891.89,-49 1896.17,-49 1900.44,-49"/>
<polygon fill="#f94144" stroke="#f94144" points="1887.85,-45.5 1877.85,-49 1887.85,-52.5 1887.85,-45.5"/>
<polygon fill="#f94144" stroke="#f94144" points="1900.18,-52.5 1910.18,-49 1900.18,-45.5 1900.18,-52.5"/>
</g>
<!-- node3000853710101 -->
<g id="node12" class="node">
<title>node3000853710101</title>
<polygon fill="#bfdbf7" stroke="black" points="2117.75,-28.5 2117.75,-69.5 2270.25,-69.5 2270.25,-28.5 2117.75,-28.5"/>
<text text-anchor="middle" x="2194" y="-52.2" font-family="Times,serif" font-size="14.00">DPI: 3000853710101</text>
<text text-anchor="middle" x="2194" y="-35.7" font-family="Times,serif" font-size="14.00">Nombre: Shirley Pinillos</text>
</g>
<!-- node3000853720101&#45;&gt;node3000853710101 -->
<g id="edge11" class="edge">
<title>node3000853720101&#45;&gt;node3000853710101</title>
<path fill="none" stroke="#f94144" d="M2093.4,-49C2097.68,-49 2101.97,-49 2106.22,-49"/>
<polygon fill="#f94144" stroke="#f94144" points="2093.55,-45.5 2083.55,-49 2093.55,-52.5 2093.55,-45.5"/>
<polygon fill="#f94144" stroke="#f94144" points="2105.9,-52.5 2115.9,-49 2105.9,-45.5 2105.9,-52.5"/>
</g>
<!-- node3000853709101 -->
<g id="node13" class="node">
<title>node3000853709101</title>
<polygon fill="#bfdbf7" stroke="black" points="2306.25,-28.5 2306.25,-69.5 2473,-69.5 2473,-28.5 2306.25,-28.5"/>
<text text-anchor="middle" x="2389.62" y="-52.2" font-family="Times,serif" font-size="14.00">DPI: 3000853709101</text>
<text text-anchor="middle" x="2389.62" y="-35.7" font-family="Times,serif" font-size="14.00">Nombre: Ashley Boanerges</text>
</g>
<!-- node3000853710101&#45;&gt;node3000853709101 -->
<g id="edge12" class="edge">
<title>node3000853710101&#45;&gt;node3000853709101</title>
<path fill="none" stroke="#f94144" d="M2282.18,-49C2286.26,-49 2290.36,-49 2294.45,-49"/>
<polygon fill="#f94144" stroke="#f94144" points="2282.21,-45.5 2272.21,-49 2282.21,-52.5 2282.21,-45.5"/>
<polygon fill="#f94144" stroke="#f94144" points="2294.43,-52.5 2304.43,-49 2294.43,-45.5 2294.43,-52.5"/>
</g>
<!-- node3000853708101 -->
<g id="node14" class="node">
<title>node3000853708101</title>
<polygon fill="#bfdbf7" stroke="black" points="2509,-28.5 2509,-69.5 2651,-69.5 2651,-28.5 2509,-28.5"/>
<text text-anchor="middle" x="2580" y="-52.2" font-family="Times,serif" font-size="14.00">DPI: 3000853708101</text>
<text text-anchor="middle" x="2580" y="-35.7" font-family="Times,serif" font-size="14.00">Nombre: Surely Juarez</text>
</g>
<!-- node3000853709101&#45;&gt;node3000853708101 -->
<g id="edge13" class="edge">
<title>node3000853709101&#45;&gt;node3000853708101</title>
<path fill="none" stroke="#f94144" d="M2484.6,-49C2488.75,-49 2492.91,-49 2497.03,-49"/>
<polygon fill="#f94144" stroke="#f94144" points="2484.76,-45.5 2474.76,-49 2484.76,-52.5 2484.76,-45.5"/>
<polygon fill="#f94144" stroke="#f94144" points="2497.01,-52.5 2507.01,-49 2497.01,-45.5 2497.01,-52.5"/>
</g>
<!-- node3000853707101 -->
<g id="node15" class="node">
<title>node3000853707101</title>
<polygon fill="#bfdbf7" stroke="black" points="2687,-28.5 2687,-69.5 2835,-69.5 2835,-28.5 2687,-28.5"/>
<text text-anchor="middle" x="2761" y="-52.2" font-family="Times,serif" font-size="14.00">DPI: 3000853707101</text>
<text text-anchor="middle" x="2761" y="-35.7" font-family="Times,serif" font-size="14.00">Nombre: Susely Gomez</text>
</g>
<!-- node3000853708101&#45;&gt;node3000853707101 -->
<g id="edge14" class="edge">
<title>node3000853708101&#45;&gt;node3000853707101</title>
<path fill="none" stroke="#f94144" d="M2662.97,-49C2667.04,-49 2671.13,-49 2675.2,-49"/>
<polygon fill="#f94144" stroke="#f94144" points="2663,-45.5 2653,-49 2663,-52.5 2663,-45.5"/>
<polygon fill="#f94144" stroke="#f94144" points="2675.12,-52.5 2685.12,-49 2675.12,-45.5 2675.12,-52.5"/>
</g>
<!-- node3000853706101 -->
<g id="node16" class="node">
<title>node3000853706101</title>
<polygon fill="#bfdbf7" stroke="black" points="2871,-28.5 2871,-69.5 3010.75,-69.5 3010.75,-28.5 2871,-28.5"/>
<text text-anchor="middle" x="2940.88" y="-52.2" font-family="Times,serif" font-size="14.00">DPI: 3000853706101</text>
<text text-anchor="middle" x="2940.88" y="-35.7" font-family="Times,serif" font-size="14.00">Nombre: Angel Pelaez</text>
</g>
<!-- node3000853707101&#45;&gt;node3000853706101 -->
<g id="edge15" class="edge">
<title>node3000853707101&#45;&gt;node3000853706101</title>
<path fill="none" stroke="#f94144" d="M2846.68,-49C2850.95,-49 2855.23,-49 2859.49,-49"/>
<polygon fill="#f94144" stroke="#f94144" points="2846.89,-45.5 2836.89,-49 2846.89,-52.5 2846.89,-45.5"/>
<polygon fill="#f94144" stroke="#f94144" points="2859.16,-52.5 2869.16,-49 2859.16,-45.5 2859.16,-52.5"/>
</g>
<!-- node3000853705101 -->
<g id="node17" class="node">
<title>node3000853705101</title>
<polygon fill="#bfdbf7" stroke="black" points="3046.75,-28.5 3046.75,-69.5 3206,-69.5 3206,-28.5 3046.75,-28.5"/>
<text text-anchor="middle" x="3126.38" y="-52.2" font-family="Times,serif" font-size="14.00">DPI: 3000853705101</text>
<text text-anchor="middle" x="3126.38" y="-35.7" font-family="Times,serif" font-size="14.00">Nombre: Sandra Martinez</text>
</g>
<!-- node3000853706101&#45;&gt;node3000853705101 -->
<g id="edge16" class="edge">
<title>node3000853706101&#45;&gt;node3000853705101</title>
<path fill="none" stroke="#f94144" d="M3022.67,-49C3026.73,-49 3030.81,-49 3034.9,-49"/>
<polygon fill="#f94144" stroke="#f94144" points="3022.76,-45.5 3012.76,-49 3022.76,-52.5 3022.76,-45.5"/>
<polygon fill="#f94144" stroke="#f94144" points="3034.85,-52.5 3044.85,-49 3034.85,-45.5 3034.85,-52.5"/>
</g>
<!-- node3000853704101 -->
<g id="node18" class="node">
<title>node3000853704101</title>
<polygon fill="#bfdbf7" stroke="black" points="3242,-28.5 3242,-69.5 3395.25,-69.5 3395.25,-28.5 3242,-28.5"/>
<text text-anchor="middle" x="3318.62" y="-52.2" font-family="Times,serif" font-size="14.00">DPI: 3000853704101</text>
<text text-anchor="middle" x="3318.62" y="-35.7" font-family="Times,serif" font-size="14.00">Nombre: Amanda Taylor</text>
</g>
<!-- node3000853705101&#45;&gt;node3000853704101 -->
<g id="edge17" class="edge">
<title>node3000853705101&#45;&gt;node3000853704101</title>
<path fill="none" stroke="#f94144" d="M3217.67,-49C3221.92,-49 3226.18,-49 3230.43,-49"/>
<polygon fill="#f94144" stroke="#f94144" points="3217.92,-45.5 3207.92,-49 3217.92,-52.5 3217.92,-45.5"/>
<polygon fill="#f94144" stroke="#f94144" points="3230.08,-52.5 3240.08,-49 3230.08,-45.5 3230.08,-52.5"/>
</g>
<!-- node3000853703101 -->
<g id="node19" class="node">
<title>node3000853703101</title>
<polygon fill="#bfdbf7" stroke="black" points="3431.25,-28.5 3431.25,-69.5 3564.25,-69.5 3564.25,-28.5 3431.25,-28.5"/>
<text text-anchor="middle" x="3497.75" y="-52.2" font-family="Times,serif" font-size="14.00">DPI: 3000853703101</text>
<text text-anchor="middle" x="3497.75" y="-35.7" font-family="Times,serif" font-size="14.00">Nombre: Roxana Pu</text>
</g>
<!-- node3000853704101&#45;&gt;node3000853703101 -->
<g id="edge18" class="edge">
<title>node3000853704101&#45;&gt;node3000853703101</title>
<path fill="none" stroke="#f94144" d="M3406.86,-49C3411.01,-49 3415.16,-49 3419.28,-49"/>
<polygon fill="#f94144" stroke="#f94144" points="3407.03,-45.5 3397.03,-49 3407.03,-52.5 3407.03,-45.5"/>
<polygon fill="#f94144" stroke="#f94144" points="3419.27,-52.5 3429.27,-49 3419.27,-45.5 3419.27,-52.5"/>
</g>
<!-- node3000853702101 -->
<g id="node20" class="node">
<title>node3000853702101</title>
<polygon fill="#bfdbf7" stroke="black" points="3600.25,-28.5 3600.25,-69.5 3738.5,-69.5 3738.5,-28.5 3600.25,-28.5"/>
<text text-anchor="middle" x="3669.38" y="-52.2" font-family="Times,serif" font-size="14.00">DPI: 3000853702101</text>
<text text-anchor="middle" x="3669.38" y="-35.7" font-family="Times,serif" font-size="14.00">Nombre: Alany Ixchel</text>
</g>
<!-- node3000853703101&#45;&gt;node3000853702101 -->
<g id="edge19" class="edge">
<title>node3000853703101&#45;&gt;node3000853702101</title>
<path fill="none" stroke="#f94144" d="M3575.66,-49C3579.95,-49 3584.27,-49 3588.57,-49"/>
<polygon fill="#f94144" stroke="#f94144" points="3575.85,-45.5 3565.84,-49 3575.84,-52.5 3575.85,-45.5"/>
<polygon fill="#f94144" stroke="#f94144" points="3588.37,-52.5 3598.37,-49 3588.37,-45.5 3588.37,-52.5"/>
</g>
<!-- node3000853701101 -->
<g id="node21" class="node">
<title>node3000853701101</title>
<polygon fill="#bfdbf7" stroke="black" points="3774.5,-28.5 3774.5,-69.5 3953.25,-69.5 3953.25,-28.5 3774.5,-28.5"/>
<text text-anchor="middle" x="3863.88" y="-52.2" font-family="Times,serif" font-size="14.00">DPI: 3000853701101</text>
<text text-anchor="middle" x="3863.88" y="-35.7" font-family="Times,serif" font-size="14.00">Nombre: Estephanie De Leon</text>
</g>
<!-- node3000853702101&#45;&gt;node3000853701101 -->
<g id="edge20" class="edge">
<title>node3000853702101&#45;&gt;node3000853701101</title>
<path fill="none" stroke="#f94144" d="M3750.22,-49C3754.42,-49 3758.66,-49 3762.9,-49"/>
<polygon fill="#f94144" stroke="#f94144" points="3750.3,-45.5 3740.3,-49 3750.3,-52.5 3750.3,-45.5"/>
<polygon fill="#f94144" stroke="#f94144" points="3762.63,-52.5 3772.63,-49 3762.63,-45.5 3762.63,-52.5"/>
</g>
<!-- node3000853700901 -->
<g id="node22" class="node">
<title>node3000853700901</title>
<polygon fill="#bfdbf7" stroke="black" points="3989.25,-28.5 3989.25,-69.5 4126,-69.5 4126,-28.5 3989.25,-28.5"/>
<text text-anchor="middle" x="4057.62" y="-52.2" font-family="Times,serif" font-size="14.00">DPI: 3000853700901</text>
<text text-anchor="middle" x="4057.62" y="-35.7" font-family="Times,serif" font-size="14.00">Nombre: Flor Castillo</text>
</g>
<!-- node3000853701101&#45;&gt;node3000853700901 -->
<g id="edge21" class="edge">
<title>node3000853701101&#45;&gt;node3000853700901</title>
<path fill="none" stroke="#f94144" d="M3965.14,-49C3969.3,-49 3973.45,-49 3977.56,-49"/>
<polygon fill="#f94144" stroke="#f94144" points="3965.25,-45.5 3955.25,-49 3965.25,-52.5 3965.25,-45.5"/>
<polygon fill="#f94144" stroke="#f94144" points="3977.48,-52.5 3987.48,-49 3977.48,-45.5 3977.48,-52.5"/>
</g>
<!-- node3000853700801 -->
<g id="node23" class="node">
<title>node3000853700801</title>
<polygon fill="#bfdbf7" stroke="black" points="4162,-28.5 4162,-69.5 4310,-69.5 4310,-28.5 4162,-28.5"/>
<text text-anchor="middle" x="4236" y="-52.2" font-family="Times,serif" font-size="14.00">DPI: 3000853700801</text>
<text text-anchor="middle" x="4236" y="-35.7" font-family="Times,serif" font-size="14.00">Nombre: Linda Retana2</text>
</g>
<!-- node3000853700901&#45;&gt;node3000853700801 -->
<g id="edge22" class="edge">
<title>node3000853700901&#45;&gt;node3000853700801</title>
<path fill="none" stroke="#f94144" d="M4137.82,-49C4141.91,-49 4146.02,-49 4150.12,-49"/>
<polygon fill="#f94144" stroke="#f94144" points="4137.83,-45.5 4127.83,-49 4137.83,-52.5 4137.83,-45.5"/>
<polygon fill="#f94144" stroke="#f94144" points="4150.12,-52.5 4160.12,-49 4150.12,-45.5 4150.12,-52.5"/>
</g>
<!-- node3000853700701 -->
<g id="node24" class="node">
<title>node3000853700701</title>
<polygon fill="#bfdbf7" stroke="black" points="4346,-28.5 4346,-69.5 4500.75,-69.5 4500.75,-28.5 4346,-28.5"/>
<text text-anchor="middle" x="4423.38" y="-52.2" font-family="Times,serif" font-size="14.00">DPI: 3000853700701</text>
<text text-anchor="middle" x="4423.38" y="-35.7" font-family="Times,serif" font-size="14.00">Nombre: Oscar Gutierrez</text>
</g>
<!-- node3000853700801&#45;&gt;node3000853700701 -->
<g id="edge23" class="edge">
<title>node3000853700801&#45;&gt;node3000853700701</title>
<path fill="none" stroke="#f94144" d="M4321.55,-49C4325.83,-49 4330.12,-49 4334.41,-49"/>
<polygon fill="#f94144" stroke="#f94144" points="4321.78,-45.5 4311.78,-49 4321.78,-52.5 4321.78,-45.5"/>
<polygon fill="#f94144" stroke="#f94144" points="4334.17,-52.5 4344.17,-49 4334.17,-45.5 4334.17,-52.5"/>
</g>
<!-- node3000853700601 -->
<g id="node25" class="node">
<title>node3000853700601</title>
<polygon fill="#bfdbf7" stroke="black" points="4536.75,-28.5 4536.75,-69.5 4669.75,-69.5 4669.75,-28.5 4536.75,-28.5"/>
<text text-anchor="middle" x="4603.25" y="-52.2" font-family="Times,serif" font-size="14.00">DPI: 3000853700601</text>
<text text-anchor="middle" x="4603.25" y="-35.7" font-family="Times,serif" font-size="14.00">Nombre: Raul Pelaez</text>
</g>
<!-- node3000853700701&#45;&gt;node3000853700601 -->
<g id="edge24" class="edge">
<title>node3000853700701&#45;&gt;node3000853700601</title>
<path fill="none" stroke="#f94144" d="M4512.46,-49C4516.61,-49 4520.77,-49 4524.89,-49"/>
<polygon fill="#f94144" stroke="#f94144" points="4512.61,-45.5 4502.61,-49 4512.61,-52.5 4512.61,-45.5"/>
<polygon fill="#f94144" stroke="#f94144" points="4524.88,-52.5 4534.88,-49 4524.88,-45.5 4524.88,-52.5"/>
</g>
<!-- node3000853700501 -->
<g id="node26" class="node">
<title>node3000853700501</title>
<polygon fill="#bfdbf7" stroke="black" points="4705.75,-28.5 4705.75,-69.5 4849.25,-69.5 4849.25,-28.5 4705.75,-28.5"/>
<text text-anchor="middle" x="4777.5" y="-52.2" font-family="Times,serif" font-size="14.00">DPI: 3000853700501</text>
<text text-anchor="middle" x="4777.5" y="-35.7" font-family="Times,serif" font-size="14.00">Nombre: Daniel Castro</text>
</g>
<!-- node3000853700601&#45;&gt;node3000853700501 -->
<g id="edge25" class="edge">
<title>node3000853700601&#45;&gt;node3000853700501</title>
<path fill="none" stroke="#f94144" d="M4681.14,-49C4685.42,-49 4689.72,-49 4694.02,-49"/>
<polygon fill="#f94144" stroke="#f94144" points="4681.38,-45.5 4671.38,-49 4681.38,-52.5 4681.38,-45.5"/>
<polygon fill="#f94144" stroke="#f94144" points="4693.82,-52.5 4703.82,-49 4693.82,-45.5 4693.82,-52.5"/>
</g>
<!-- node3000853700401 -->
<g id="node27" class="node">
<title>node3000853700401</title>
<polygon fill="#bfdbf7" stroke="black" points="4885.25,-28.5 4885.25,-69.5 5034.75,-69.5 5034.75,-28.5 4885.25,-28.5"/>
<text text-anchor="middle" x="4960" y="-52.2" font-family="Times,serif" font-size="14.00">DPI: 3000853700401</text>
<text text-anchor="middle" x="4960" y="-35.7" font-family="Times,serif" font-size="14.00">Nombre: Sergio Castillo</text>
</g>
<!-- node3000853700501&#45;&gt;node3000853700401 -->
<g id="edge26" class="edge">
<title>node3000853700501&#45;&gt;node3000853700401</title>
<path fill="none" stroke="#f94144" d="M4860.88,-49C4865.15,-49 4869.45,-49 4873.74,-49"/>
<polygon fill="#f94144" stroke="#f94144" points="4861.09,-45.5 4851.09,-49 4861.09,-52.5 4861.09,-45.5"/>
<polygon fill="#f94144" stroke="#f94144" points="4873.5,-52.5 4883.5,-49 4873.5,-45.5 4873.5,-52.5"/>
</g>
<!-- node3000853700301 -->
<g id="node28" class="node">
<title>node3000853700301</title>
<polygon fill="#bfdbf7" stroke="black" points="5070.75,-28.5 5070.75,-69.5 5250.25,-69.5 5250.25,-28.5 5070.75,-28.5"/>
<text text-anchor="middle" x="5160.5" y="-52.2" font-family="Times,serif" font-size="14.00">DPI: 3000853700301</text>
<text text-anchor="middle" x="5160.5" y="-35.7" font-family="Times,serif" font-size="14.00">Nombre: Maximiliano Rivera</text>
</g>
<!-- node3000853700401&#45;&gt;node3000853700301 -->
<g id="edge27" class="edge">
<title>node3000853700401&#45;&gt;node3000853700301</title>
<path fill="none" stroke="#f94144" d="M5046.6,-49C5050.65,-49 5054.73,-49 5058.82,-49"/>
<polygon fill="#f94144" stroke="#f94144" points="5046.71,-45.5 5036.71,-49 5046.71,-52.5 5046.71,-45.5"/>
<polygon fill="#f94144" stroke="#f94144" points="5058.8,-52.5 5068.8,-49 5058.8,-45.5 5058.8,-52.5"/>
</g>
<!-- node3000853700201 -->
<g id="node29" class="node">
<title>node3000853700201</title>
<polygon fill="#bfdbf7" stroke="black" points="5286.25,-28.5 5286.25,-69.5 5444.75,-69.5 5444.75,-28.5 5286.25,-28.5"/>
<text text-anchor="middle" x="5365.5" y="-52.2" font-family="Times,serif" font-size="14.00">DPI: 3000853700201</text>
<text text-anchor="middle" x="5365.5" y="-35.7" font-family="Times,serif" font-size="14.00">Nombre: Pancho Orellana</text>
</g>
<!-- node3000853700301&#45;&gt;node3000853700201 -->
<g id="edge28" class="edge">
<title>node3000853700301&#45;&gt;node3000853700201</title>
<path fill="none" stroke="#f94144" d="M5261.95,-49C5266.25,-49 5270.55,-49 5274.82,-49"/>
<polygon fill="#f94144" stroke="#f94144" points="5262.05,-45.5 5252.05,-49 5262.05,-52.5 5262.05,-45.5"/>
<polygon fill="#f94144" stroke="#f94144" points="5274.53,-52.5 5284.53,-49 5274.53,-45.5 5274.53,-52.5"/>
</g>
<!-- node3000853700191 -->
<g id="node30" class="node">
<title>node3000853700191</title>
<polygon fill="#bfdbf7" stroke="black" points="5480.75,-28.5 5480.75,-69.5 5636.25,-69.5 5636.25,-28.5 5480.75,-28.5"/>
<text text-anchor="middle" x="5558.5" y="-52.2" font-family="Times,serif" font-size="14.00">DPI: 3000853700191</text>
<text text-anchor="middle" x="5558.5" y="-35.7" font-family="Times,serif" font-size="14.00">Nombre: Ulysses Benitez</text>
</g>
<!-- node3000853700201&#45;&gt;node3000853700191 -->
<g id="edge29" class="edge">
<title>node3000853700201&#45;&gt;node3000853700191</title>
<path fill="none" stroke="#f94144" d="M5456.37,-49C5460.66,-49 5464.96,-49 5469.25,-49"/>
<polygon fill="#f94144" stroke="#f94144" points="5456.53,-45.5 5446.53,-49 5456.53,-52.5 5456.53,-45.5"/>
<polygon fill="#f94144" stroke="#f94144" points="5469.01,-52.5 5479.01,-49 5469.01,-45.5 5469.01,-52.5"/>
</g>
<!-- node3000853700181 -->
<g id="node31" class="node">
<title>node3000853700181</title>
<polygon fill="#bfdbf7" stroke="black" points="5672.25,-28.5 5672.25,-69.5 5812,-69.5 5812,-28.5 5672.25,-28.5"/>
<text text-anchor="middle" x="5742.12" y="-52.2" font-family="Times,serif" font-size="14.00">DPI: 3000853700181</text>
<text text-anchor="middle" x="5742.12" y="-35.7" font-family="Times,serif" font-size="14.00">Nombre: Javier Pelaez</text>
</g>
<!-- node3000853700191&#45;&gt;node3000853700181 -->
<g id="edge30" class="edge">
<title>node3000853700191&#45;&gt;node3000853700181</title>
<path fill="none" stroke="#f94144" d="M5647.84,-49C5651.98,-49 5656.13,-49 5660.25,-49"/>
<polygon fill="#f94144" stroke="#f94144" points="5648.04,-45.5 5638.04,-49 5648.04,-52.5 5648.04,-45.5"/>
<polygon fill="#f94144" stroke="#f94144" points="5660.24,-52.5 5670.24,-49 5660.24,-45.5 5660.24,-52.5"/>
</g>
<!-- node3000853700171 -->
<g id="node32" class="node">
<title>node3000853700171</title>
<polygon fill="#bfdbf7" stroke="black" points="5848,-28.5 5848,-69.5 5999.75,-69.5 5999.75,-28.5 5848,-28.5"/>
<text text-anchor="middle" x="5923.88" y="-52.2" font-family="Times,serif" font-size="14.00">DPI: 3000853700171</text>
<text text-anchor="middle" x="5923.88" y="-35.7" font-family="Times,serif" font-size="14.00">Nombre: Miguel Gomez</text>
</g>
<!-- node3000853700181&#45;&gt;node3000853700171 -->
<g id="edge31" class="edge">
<title>node3000853700181&#45;&gt;node3000853700171</title>
<path fill="none" stroke="#f94144" d="M5823.6,-49C5827.86,-49 5832.15,-49 5836.43,-49"/>
<polygon fill="#f94144" stroke="#f94144" points="5823.88,-45.5 5813.88,-49 5823.88,-52.5 5823.88,-45.5"/>
<polygon fill="#f94144" stroke="#f94144" points="5836.19,-52.5 5846.19,-49 5836.19,-45.5 5836.19,-52.5"/>
</g>
<!-- node3000853700161 -->
<g id="node33" class="node">
<title>node3000853700161</title>
<polygon fill="#bfdbf7" stroke="black" points="6035.75,-28.5 6035.75,-69.5 6174.75,-69.5 6174.75,-28.5 6035.75,-28.5"/>
<text text-anchor="middle" x="6105.25" y="-52.2" font-family="Times,serif" font-size="14.00">DPI: 3000853700161</text>
<text text-anchor="middle" x="6105.25" y="-35.7" font-family="Times,serif" font-size="14.00">Nombre: Samuel Ruiz</text>
</g>
<!-- node3000853700171&#45;&gt;node3000853700161 -->
<g id="edge32" class="edge">
<title>node3000853700171&#45;&gt;node3000853700161</title>
<path fill="none" stroke="#f94144" d="M6011.48,-49C6015.75,-49 6020.03,-49 6024.28,-49"/>
<polygon fill="#f94144" stroke="#f94144" points="6011.68,-45.5 6001.68,-49 6011.68,-52.5 6011.68,-45.5"/>
<polygon fill="#f94144" stroke="#f94144" points="6023.93,-52.5 6033.93,-49 6023.93,-45.5 6023.93,-52.5"/>
</g>
<!-- node3000853700151 -->
<g id="node34" class="node">
<title>node3000853700151</title>
<polygon fill="#bfdbf7" stroke="black" points="6210.75,-28.5 6210.75,-69.5 6374.5,-69.5 6374.5,-28.5 6210.75,-28.5"/>
<text text-anchor="middle" x="6292.62" y="-52.2" font-family="Times,serif" font-size="14.00">DPI: 3000853700151</text>
<text text-anchor="middle" x="6292.62" y="-35.7" font-family="Times,serif" font-size="14.00">Nombre: Alejandro Arriola</text>
</g>
<!-- node3000853700161&#45;&gt;node3000853700151 -->
<g id="edge33" class="edge">
<title>node3000853700161&#45;&gt;node3000853700151</title>
<path fill="none" stroke="#f94144" d="M6186.52,-49C6190.73,-49 6194.98,-49 6199.23,-49"/>
<polygon fill="#f94144" stroke="#f94144" points="6186.53,-45.5 6176.53,-49 6186.53,-52.5 6186.53,-45.5"/>
<polygon fill="#f94144" stroke="#f94144" points="6198.93,-52.5 6208.93,-49 6198.93,-45.5 6198.93,-52.5"/>
</g>
<!-- node3000853700141 -->
<g id="node35" class="node">
<title>node3000853700141</title>
<polygon fill="#bfdbf7" stroke="black" points="6410.5,-28.5 6410.5,-69.5 6572,-69.5 6572,-28.5 6410.5,-28.5"/>
<text text-anchor="middle" x="6491.25" y="-52.2" font-family="Times,serif" font-size="14.00">DPI: 3000853700141</text>
<text text-anchor="middle" x="6491.25" y="-35.7" font-family="Times,serif" font-size="14.00">Nombre: Sebastian Retana</text>
</g>
<!-- node3000853700151&#45;&gt;node3000853700141 -->
<g id="edge34" class="edge">
<title>node3000853700151&#45;&gt;node3000853700141</title>
<path fill="none" stroke="#f94144" d="M6386.1,-49C6390.39,-49 6394.7,-49 6398.99,-49"/>
<polygon fill="#f94144" stroke="#f94144" points="6386.25,-45.5 6376.25,-49 6386.25,-52.5 6386.25,-45.5"/>
<polygon fill="#f94144" stroke="#f94144" points="6398.76,-52.5 6408.76,-49 6398.76,-45.5 6398.76,-52.5"/>
</g>
<!-- node3000853700131 -->
<g id="node36" class="node">
<title>node3000853700131</title>
<polygon fill="#bfdbf7" stroke="black" points="6608,-28.5 6608,-69.5 6741,-69.5 6741,-28.5 6608,-28.5"/>
<text text-anchor="middle" x="6674.5" y="-52.2" font-family="Times,serif" font-size="14.00">DPI: 3000853700131</text>
<text text-anchor="middle" x="6674.5" y="-35.7" font-family="Times,serif" font-size="14.00">Nombre: Luli Lopez</text>
</g>
<!-- node3000853700141&#45;&gt;node3000853700131 -->
<g id="edge35" class="edge">
<title>node3000853700141&#45;&gt;node3000853700131</title>
<path fill="none" stroke="#f94144" d="M6583.72,-49C6588.02,-49 6592.33,-49 6596.59,-49"/>
<polygon fill="#f94144" stroke="#f94144" points="6583.79,-45.5 6573.79,-49 6583.79,-52.5 6583.79,-45.5"/>
<polygon fill="#f94144" stroke="#f94144" points="6596.23,-52.5 6606.23,-49 6596.23,-45.5 6596.23,-52.5"/>
</g>
<!-- node3000853700121 -->
<g id="node37" class="node">
<title>node3000853700121</title>
<polygon fill="#bfdbf7" stroke="black" points="6777,-28.5 6777,-69.5 6937.75,-69.5 6937.75,-28.5 6777,-28.5"/>
<text text-anchor="middle" x="6857.38" y="-52.2" font-family="Times,serif" font-size="14.00">DPI: 3000853700121</text>
<text text-anchor="middle" x="6857.38" y="-35.7" font-family="Times,serif" font-size="14.00">Nombre: Dominga Retana</text>
</g>
<!-- node3000853700131&#45;&gt;node3000853700121 -->
<g id="edge36" class="edge">
<title>node3000853700131&#45;&gt;node3000853700121</title>
<path fill="none" stroke="#f94144" d="M6752.8,-49C6757.02,-49 6761.27,-49 6765.52,-49"/>
<polygon fill="#f94144" stroke="#f94144" points="6752.83,-45.5 6742.83,-49 6752.83,-52.5 6752.83,-45.5"/>
<polygon fill="#f94144" stroke="#f94144" points="6765.25,-52.5 6775.25,-49 6765.25,-45.5 6765.25,-52.5"/>
</g>
<!-- node3000853700110 -->
<g id="node38" class="node">
<title>node3000853700110</title>
<polygon fill="#bfdbf7" stroke="black" points="6973.75,-28.5 6973.75,-69.5 7118,-69.5 7118,-28.5 6973.75,-28.5"/>
<text text-anchor="middle" x="7045.88" y="-52.2" font-family="Times,serif" font-size="14.00">DPI: 3000853700110</text>
<text text-anchor="middle" x="7045.88" y="-35.7" font-family="Times,serif" font-size="14.00">Nombre: Paola Castillo</text>
</g>
<!-- node3000853700121&#45;&gt;node3000853700110 -->
<g id="edge37" class="edge">
<title>node3000853700121&#45;&gt;node3000853700110</title>
<path fill="none" stroke="#f94144" d="M6949.4,-49C6953.69,-49 6957.99,-49 6962.26,-49"/>
<polygon fill="#f94144" stroke="#f94144" points="6949.52,-45.5 6939.52,-49 6949.52,-52.5 6949.52,-45.5"/>
<polygon fill="#f94144" stroke="#f94144" points="6961.95,-52.5 6971.95,-49 6961.95,-45.5 6961.95,-52.5"/>
</g>
<!-- node3000853700109 -->
<g id="node39" class="node">
<title>node3000853700109</title>
<polygon fill="#bfdbf7" stroke="black" points="7154,-28.5 7154,-69.5 7314.75,-69.5 7314.75,-28.5 7154,-28.5"/>
<text text-anchor="middle" x="7234.38" y="-52.2" font-family="Times,serif" font-size="14.00">DPI: 3000853700109</text>
<text text-anchor="middle" x="7234.38" y="-35.7" font-family="Times,serif" font-size="14.00">Nombre: Alejandra Rivera</text>
</g>
<!-- node3000853700110&#45;&gt;node3000853700109 -->
<g id="edge38" class="edge">
<title>node3000853700110&#45;&gt;node3000853700109</title>
<path fill="none" stroke="#f94144" d="M7129.9,-49C7133.96,-49 7138.05,-49 7142.13,-49"/>
<polygon fill="#f94144" stroke="#f94144" points="7129.96,-45.5 7119.96,-49 7129.96,-52.5 7129.96,-45.5"/>
<polygon fill="#f94144" stroke="#f94144" points="7142.09,-52.5 7152.09,-49 7142.09,-45.5 7142.09,-52.5"/>
</g>
<!-- node3000853700108 -->
<g id="node40" class="node">
<title>node3000853700108</title>
<polygon fill="#bfdbf7" stroke="black" points="7350.75,-28.5 7350.75,-69.5 7502.5,-69.5 7502.5,-28.5 7350.75,-28.5"/>
<text text-anchor="middle" x="7426.62" y="-52.2" font-family="Times,serif" font-size="14.00">DPI: 3000853700108</text>
<text text-anchor="middle" x="7426.62" y="-35.7" font-family="Times,serif" font-size="14.00">Nombre: Abigail Solares</text>
</g>
<!-- node3000853700109&#45;&gt;node3000853700108 -->
<g id="edge39" class="edge">
<title>node3000853700109&#45;&gt;node3000853700108</title>
<path fill="none" stroke="#f94144" d="M7326.54,-49C7330.81,-49 7335.09,-49 7339.34,-49"/>
<polygon fill="#f94144" stroke="#f94144" points="7326.74,-45.5 7316.74,-49 7326.74,-52.5 7326.74,-45.5"/>
<polygon fill="#f94144" stroke="#f94144" points="7339.02,-52.5 7349.02,-49 7339.02,-45.5 7339.02,-52.5"/>
</g>
<!-- node3000853700107 -->
<g id="node41" class="node">
<title>node3000853700107</title>
<polygon fill="#bfdbf7" stroke="black" points="7538.5,-28.5 7538.5,-69.5 7688,-69.5 7688,-28.5 7538.5,-28.5"/>
<text text-anchor="middle" x="7613.25" y="-52.2" font-family="Times,serif" font-size="14.00">DPI: 3000853700107</text>
<text text-anchor="middle" x="7613.25" y="-35.7" font-family="Times,serif" font-size="14.00">Nombre: Andrea Arriola</text>
</g>
<!-- node3000853700108&#45;&gt;node3000853700107 -->
<g id="edge40" class="edge">
<title>node3000853700108&#45;&gt;node3000853700107</title>
<path fill="none" stroke="#f94144" d="M7514.46,-49C7518.52,-49 7522.6,-49 7526.66,-49"/>
<polygon fill="#f94144" stroke="#f94144" points="7514.5,-45.5 7504.5,-49 7514.5,-52.5 7514.5,-45.5"/>
<polygon fill="#f94144" stroke="#f94144" points="7526.51,-52.5 7536.51,-49 7526.51,-45.5 7526.51,-52.5"/>
</g>
<!-- node3000853700106 -->
<g id="node42" class="node">
<title>node3000853700106</title>
<polygon fill="#bfdbf7" stroke="black" points="7724,-28.5 7724,-69.5 7879.5,-69.5 7879.5,-28.5 7724,-28.5"/>
<text text-anchor="middle" x="7801.75" y="-52.2" font-family="Times,serif" font-size="14.00">DPI: 3000853700106</text>
<text text-anchor="middle" x="7801.75" y="-35.7" font-family="Times,serif" font-size="14.00">Nombre: Isabel Gutierrez</text>
</g>
<!-- node3000853700107&#45;&gt;node3000853700106 -->
<g id="edge41" class="edge">
<title>node3000853700107&#45;&gt;node3000853700106</title>
<path fill="none" stroke="#f94144" d="M7700,-49C7704.08,-49 7708.17,-49 7712.26,-49"/>
<polygon fill="#f94144" stroke="#f94144" points="7700.01,-45.5 7690.01,-49 7700.01,-52.5 7700.01,-45.5"/>
<polygon fill="#f94144" stroke="#f94144" points="7712.19,-52.5 7722.19,-49 7712.19,-45.5 7712.19,-52.5"/>
</g>
<!-- node3000853700105 -->
<g id="node43" class="node">
<title>node3000853700105</title>
<polygon fill="#bfdbf7" stroke="black" points="7915.5,-28.5 7915.5,-69.5 8061.25,-69.5 8061.25,-28.5 7915.5,-28.5"/>
<text text-anchor="middle" x="7988.38" y="-52.2" font-family="Times,serif" font-size="14.00">DPI: 3000853700105</text>
<text text-anchor="middle" x="7988.38" y="-35.7" font-family="Times,serif" font-size="14.00">Nombre: Angela Pelaez</text>
</g>
<!-- node3000853700106&#45;&gt;node3000853700105 -->
<g id="edge42" class="edge">
<title>node3000853700106&#45;&gt;node3000853700105</title>
<path fill="none" stroke="#f94144" d="M7891.26,-49C7895.52,-49 7899.79,-49 7904.03,-49"/>
<polygon fill="#f94144" stroke="#f94144" points="7891.49,-45.5 7881.49,-49 7891.49,-52.5 7891.49,-45.5"/>
<polygon fill="#f94144" stroke="#f94144" points="7903.66,-52.5 7913.66,-49 7903.66,-45.5 7903.66,-52.5"/>
</g>
<!-- node3000853700104 -->
<g id="node44" class="node">
<title>node3000853700104</title>
<polygon fill="#bfdbf7" stroke="black" points="8097.25,-28.5 8097.25,-69.5 8244.5,-69.5 8244.5,-28.5 8097.25,-28.5"/>
<text text-anchor="middle" x="8170.88" y="-52.2" font-family="Times,serif" font-size="14.00">DPI: 3000853700104</text>
<text text-anchor="middle" x="8170.88" y="-35.7" font-family="Times,serif" font-size="14.00">Nombre: Roxana Lopez</text>
</g>
<!-- node3000853700105&#45;&gt;node3000853700104 -->
<g id="edge43" class="edge">
<title>node3000853700105&#45;&gt;node3000853700104</title>
<path fill="none" stroke="#f94144" d="M8072.82,-49C8077.11,-49 8081.42,-49 8085.71,-49"/>
<polygon fill="#f94144" stroke="#f94144" points="8073.01,-45.5 8063.01,-49 8073.01,-52.5 8073.01,-45.5"/>
<polygon fill="#f94144" stroke="#f94144" points="8085.48,-52.5 8095.48,-49 8085.48,-45.5 8085.48,-52.5"/>
</g>
<!-- node3000853700103 -->
<g id="node45" class="node">
<title>node3000853700103</title>
<polygon fill="#bfdbf7" stroke="black" points="8280.5,-28.5 8280.5,-69.5 8413.5,-69.5 8413.5,-28.5 8280.5,-28.5"/>
<text text-anchor="middle" x="8347" y="-52.2" font-family="Times,serif" font-size="14.00">DPI: 3000853700103</text>
<text text-anchor="middle" x="8347" y="-35.7" font-family="Times,serif" font-size="14.00">Nombre: Emy Ruiz</text>
</g>
<!-- node3000853700104&#45;&gt;node3000853700103 -->
<g id="edge44" class="edge">
<title>node3000853700104&#45;&gt;node3000853700103</title>
<path fill="none" stroke="#f94144" d="M8256.22,-49C8260.34,-49 8264.47,-49 8268.58,-49"/>
<polygon fill="#f94144" stroke="#f94144" points="8256.48,-45.5 8246.48,-49 8256.48,-52.5 8256.48,-45.5"/>
<polygon fill="#f94144" stroke="#f94144" points="8268.52,-52.5 8278.52,-49 8268.52,-45.5 8268.52,-52.5"/>
</g>
<!-- node3000853700102 -->
<g id="node46" class="node">
<title>node3000853700102</title>
<polygon fill="#bfdbf7" stroke="black" points="8449.5,-28.5 8449.5,-69.5 8589.25,-69.5 8589.25,-28.5 8449.5,-28.5"/>
<text text-anchor="middle" x="8519.38" y="-52.2" font-family="Times,serif" font-size="14.00">DPI: 3000853700102</text>
<text text-anchor="middle" x="8519.38" y="-35.7" font-family="Times,serif" font-size="14.00">Nombre: Leila Gomez</text>
</g>
<!-- node3000853700103&#45;&gt;node3000853700102 -->
<g id="edge45" class="edge">
<title>node3000853700103&#45;&gt;node3000853700102</title>
<path fill="none" stroke="#f94144" d="M8425.34,-49C8429.41,-49 8433.5,-49 8437.58,-49"/>
<polygon fill="#f94144" stroke="#f94144" points="8425.38,-45.5 8415.38,-49 8425.38,-52.5 8425.38,-45.5"/>
<polygon fill="#f94144" stroke="#f94144" points="8437.5,-52.5 8447.5,-49 8437.5,-45.5 8437.5,-52.5"/>
</g>
<!-- node3000853700101 -->
<g id="node47" class="node">
<title>node3000853700101</title>
<polygon fill="#bfdbf7" stroke="black" points="8625.25,-3.5 8625.25,-44.5 8766.5,-44.5 8766.5,-3.5 8625.25,-3.5"/>
<text text-anchor="middle" x="8695.88" y="-27.2" font-family="Times,serif" font-size="14.00">DPI: 3000853700101</text>
<text text-anchor="middle" x="8695.88" y="-10.7" font-family="Times,serif" font-size="14.00">Nombre: Elian Estrada</text>
</g>
<!-- node3000853700102&#45;&gt;node3000853700101 -->
<g id="edge46" class="edge">
<title>node3000853700102&#45;&gt;node3000853700101</title>
<path fill="none" stroke="#f94144" d="M8600.86,-37.47C8605.12,-36.86 8609.4,-36.25 8613.67,-35.63"/>
<polygon fill="#f94144" stroke="#f94144" points="8600.49,-33.99 8591.09,-38.87 8601.49,-40.92 8600.49,-33.99"/>
<polygon fill="#f94144" stroke="#f94144" points="8613.98,-39.12 8623.39,-34.24 8612.99,-32.2 8613.98,-39.12"/>
</g>
<!-- node3000853700101&#45;&gt;node1 -->
<g id="edge47" class="edge">
<title>node3000853700101&#45;&gt;node1</title>
<path fill="none" stroke="#f94144" d="M8613.48,-15.18C8543.25,-8.33 8439.06,0 8348,0 502.5,0 502.5,0 502.5,0 405.48,0 295.43,-7.14 215.46,-13.64"/>
<polygon fill="#f94144" stroke="#f94144" points="8613.08,-18.66 8623.38,-16.16 8613.77,-11.69 8613.08,-18.66"/>
<polygon fill="#f94144" stroke="#f94144" points="215.57,-10.12 205.89,-14.42 216.14,-17.09 215.57,-10.12"/>
</g>
</g>
</svg>
